# Blender v2.72 (sub 0) OBJ File: 'Barril pixel.blend'
# www.blender.org
mtllib model.mtl
o Barrel
v -0.282843 1.040000 0.282843
v -0.400000 1.040000 -0.000000
v -0.282843 1.040000 -0.282843
v 0.000000 1.040000 -0.400000
v 0.282843 1.040000 -0.282843
v 0.400000 1.040000 0.000000
v 0.282843 1.040000 0.282843
v 0.000000 1.040000 0.400000
v -0.339411 0.800000 0.339411
v -0.480000 0.800000 -0.000000
v -0.339411 0.800000 -0.339411
v 0.000000 0.800000 -0.480000
v 0.339411 0.800000 -0.339411
v 0.480000 0.800000 0.000000
v 0.339411 0.800000 0.339411
v 0.000000 0.800000 0.480000
v -0.339411 0.240000 0.339411
v -0.480000 0.240000 -0.000000
v -0.339411 0.240000 -0.339411
v 0.000000 0.240000 -0.480000
v 0.339411 0.240000 -0.339411
v 0.480000 0.240000 0.000000
v 0.339411 0.240000 0.339411
v 0.000000 0.240000 0.480000
v -0.282417 0.000000 0.282417
v -0.399398 0.000000 -0.000000
v -0.282417 0.000000 -0.282417
v 0.000000 0.000000 -0.399398
v 0.282417 0.000000 -0.282417
v 0.399398 0.000000 0.000000
v 0.282417 0.000000 0.282417
v 0.000000 0.000000 0.399398
v 0.000000 0.960000 0.400000
v 0.282843 0.960000 0.282843
v 0.400000 0.960000 0.000000
v 0.282843 0.960000 -0.282843
v 0.000000 0.960000 -0.400000
v -0.282843 0.960000 -0.282843
v -0.400000 0.960000 -0.000000
v -0.282843 0.960000 0.282843
vt 0.687957 0.626179
vt 0.500370 0.625382
vt 0.499836 0.470211
vt 0.311996 0.469725
vt 0.125638 0.469747
vt 0.312503 0.624697
vt 0.688133 0.626002
vt 0.688996 0.470400
vt 0.874979 0.469859
vt 0.500309 0.625042
vt 0.499785 0.470142
vt 0.312078 0.469473
vt 0.126071 0.469648
vt 0.311501 0.624619
vt 0.689147 0.470060
vt 0.875070 0.470066
vt 0.499865 0.188464
vt 0.688109 0.188235
vt 0.311700 0.188518
vt 0.124832 0.188762
vt 0.875242 0.188504
vt 0.499597 0.188556
vt 0.311864 0.188161
vt 0.125199 0.188064
vt 0.500485 0.031954
vt 0.687610 0.032499
vt 0.312545 0.032192
vt 0.125000 0.031250
vt 0.688077 0.032041
vt 0.874167 0.032068
vt 0.500487 0.031897
vt 0.312667 0.032351
vt 0.788490 0.631262
vt 0.886840 0.729612
vt 0.886840 0.868700
vt 0.788490 0.967050
vt 0.649402 0.967050
vt 0.551052 0.729612
vt 0.649402 0.631261
vt 0.551052 0.868700
vt 0.796681 0.345454
vt 0.802730 0.345454
vt 0.802730 0.368601
vt 0.808778 0.345454
vt 0.808778 0.368601
vt 0.797388 0.345471
vt 0.803268 0.345471
vt 0.803268 0.367971
vt 0.809147 0.345471
vt 0.809147 0.367971
vt 0.796681 0.367849
vt 0.790829 0.367849
vt 0.790829 0.345454
vt 0.795018 0.366119
vt 0.789792 0.366119
vt 0.789792 0.346119
vt 0.809259 0.366645
vt 0.803771 0.366645
vt 0.803771 0.345645
vt 0.797388 0.367971
vt 0.791509 0.367971
vt 0.791509 0.345471
vt 0.338084 0.932212
vt 0.226646 0.932212
vt 0.147847 0.741975
vt 0.147847 0.853413
vt 0.416883 0.853413
vt 0.338084 0.663176
vt 0.416883 0.741975
vt 0.125860 0.626677
vt 0.874285 0.625905
vt 0.126061 0.626849
vt 0.873971 0.626436
vt 0.796681 0.368601
vt 0.795018 0.346119
vt 0.809259 0.345645
vt 0.226646 0.663176
vn -0.883000 0.294300 0.365700
vn -0.883000 0.294300 -0.365700
vn -0.365700 0.294300 -0.883000
vn 0.365700 0.294300 -0.883000
vn 0.883000 0.294300 -0.365700
vn 0.883000 0.294300 0.365700
vn 0.365700 0.294300 0.883000
vn -0.365700 0.294300 0.883000
vn -0.923900 0.000000 0.382700
vn -0.923900 0.000000 -0.382700
vn -0.382700 0.000000 -0.923900
vn 0.382700 0.000000 -0.923900
vn 0.923900 0.000000 -0.382700
vn 0.923900 0.000000 0.382700
vn 0.382700 0.000000 0.923900
vn -0.382700 0.000000 0.923900
vn -0.882400 -0.296300 0.365500
vn -0.882400 -0.296300 -0.365500
vn -0.365500 -0.296300 -0.882400
vn 0.365500 -0.296300 -0.882400
vn 0.882400 -0.296300 -0.365500
vn 0.882400 -0.296300 0.365500
vn 0.365500 -0.296300 0.882400
vn -0.365500 -0.296300 0.882400
vn 0.000000 -1.000000 0.000000
vn 0.000000 1.000000 0.000000
usemtl Texture
s off
f 1/1/1 2/2/1 10/3/1
f 11/4/2 10/3/2 2/2/2
f 12/5/3 11/4/3 3/6/3
f 5/7/4 13/8/4 12/9/4
f 6/10/5 14/11/5 13/8/5
f 15/12/6 14/11/6 6/10/6
f 16/13/7 15/12/7 7/14/7
f 1/1/8 9/15/8 16/16/8
f 10/3/9 18/17/9 17/18/9
f 19/19/10 18/17/10 10/3/10
f 20/20/11 19/19/11 11/4/11
f 21/18/12 20/21/12 12/9/12
f 22/22/13 21/18/13 13/8/13
f 23/23/14 22/22/14 14/11/14
f 16/13/15 24/24/15 23/23/15
f 9/15/16 17/18/16 24/21/16
f 18/17/17 26/25/17 25/26/17
f 27/27/18 26/25/18 18/17/18
f 20/20/19 28/28/19 27/27/19
f 29/29/20 28/30/20 20/21/20
f 22/22/21 30/31/21 29/29/21
f 31/32/22 30/31/22 22/22/22
f 24/24/23 32/28/23 31/32/23
f 24/21/24 17/18/24 25/26/24
f 29/33/25 30/34/25 31/35/25
f 29/33/25 31/35/25 32/36/25
f 25/37/25 27/38/25 28/39/25
f 25/37/25 26/40/25 27/38/25
f 8/41/12 33/42/12 40/43/12
f 7/42/11 34/44/11 33/45/11
f 6/46/10 35/47/10 34/48/10
f 5/47/9 36/49/9 35/50/9
f 4/51/16 37/52/16 36/53/16
f 3/54/15 38/55/15 37/56/15
f 2/57/14 39/58/14 38/59/14
f 1/60/13 40/61/13 39/62/13
f 33/63/26 34/64/26 36/65/26
f 36/65/26 34/64/26 35/66/26
f 40/67/26 38/68/26 39/69/26
f 38/68/26 40/67/26 33/63/26
f 9/15/1 1/1/1 10/3/1
f 3/6/2 11/4/2 2/2/2
f 4/70/3 12/5/3 3/6/3
f 4/71/4 5/7/4 12/9/4
f 5/7/5 6/10/5 13/8/5
f 7/14/6 15/12/6 6/10/6
f 8/72/7 16/13/7 7/14/7
f 8/73/8 1/1/8 16/16/8
f 9/15/9 10/3/9 17/18/9
f 11/4/10 19/19/10 10/3/10
f 12/5/11 20/20/11 11/4/11
f 13/8/12 21/18/12 12/9/12
f 14/11/13 22/22/13 13/8/13
f 15/12/14 23/23/14 14/11/14
f 15/12/15 16/13/15 23/23/15
f 16/16/16 9/15/16 24/21/16
f 17/18/17 18/17/17 25/26/17
f 19/19/18 27/27/18 18/17/18
f 19/19/19 20/20/19 27/27/19
f 21/18/20 29/29/20 20/21/20
f 21/18/21 22/22/21 29/29/21
f 23/23/22 31/32/22 22/22/22
f 23/23/23 24/24/23 31/32/23
f 32/30/24 24/21/24 25/26/24
f 28/39/25 29/33/25 32/36/25
f 32/36/25 25/37/25 28/39/25
f 1/74/12 8/41/12 40/43/12
f 8/43/11 7/42/11 33/45/11
f 7/60/10 6/46/10 34/48/10
f 6/48/9 5/47/9 35/50/9
f 5/41/16 4/51/16 36/53/16
f 4/75/15 3/54/15 37/56/15
f 3/76/14 2/57/14 38/59/14
f 2/46/13 1/60/13 39/62/13
f 37/77/26 33/63/26 36/65/26
f 37/77/26 38/68/26 33/63/26
