# Blender v2.72 (sub 0) OBJ File: 'Bookholder stone.blend'
# www.blender.org
mtllib model.mtl
o Bookholder_stone_Bookholder__stone
v 0.062982 1.585229 -0.352073
v 0.062982 1.590626 0.358811
v 0.000000 1.536990 -0.352447
v 0.129157 1.592653 -0.351957
v 0.129157 1.599223 0.359115
v 0.355830 1.535996 0.359211
v 0.355830 1.536990 -0.352447
v -0.355830 1.536990 -0.352448
v 0.395366 1.535941 0.398747
v 0.395367 1.537045 -0.391983
v -0.395366 1.537045 -0.391984
v -0.395367 1.535941 0.398747
v 0.395366 1.514718 0.397074
v 0.395367 1.515822 -0.393656
v -0.395366 1.515822 -0.393658
v -0.395367 1.514718 0.397074
v 0.494208 1.514580 0.495915
v 0.494208 1.515960 -0.492498
v -0.494208 1.515960 -0.492499
v -0.494208 1.514580 0.495915
v 0.494208 1.443236 0.496272
v 0.494208 1.444616 -0.492141
v -0.494208 1.444616 -0.492143
v -0.494208 1.443236 0.496272
v -0.355830 1.535996 0.359211
v -0.129157 1.599223 0.359115
v -0.129157 1.592653 -0.351957
v 0.000000 1.535997 0.359210
v -0.062982 1.590626 0.358811
v -0.062982 1.585229 -0.352073
v -0.470016 0.000000 0.470016
v -0.470016 0.000000 -0.470016
v 0.470016 0.000000 -0.470016
v 0.470016 0.000000 0.470016
v 0.470016 0.090307 0.470016
v 0.470016 0.090307 -0.470016
v -0.470016 0.090307 -0.470016
v -0.470016 0.090307 0.470016
v -0.416705 0.146471 0.416705
v -0.416705 0.146471 -0.416705
v 0.416705 0.146471 -0.416705
v 0.416705 0.146471 0.416705
v 0.300027 1.449734 0.300028
v 0.300028 1.449734 -0.300027
v -0.300028 1.449734 -0.300028
v -0.300028 1.449734 0.300028
v -0.333364 0.214398 -0.405037
v 0.333364 0.214398 -0.405037
v 0.240022 1.381808 -0.311695
v -0.240022 1.381808 -0.311695
v -0.273982 0.251104 -0.349954
v 0.273982 0.251104 -0.349954
v 0.197267 1.321716 -0.273240
v -0.197267 1.321716 -0.273240
v -0.197267 1.321716 0.273209
v 0.197267 1.321716 0.273209
v 0.273982 0.251104 0.349924
v -0.273982 0.251104 0.349924
v -0.240022 1.381808 0.311665
v 0.240022 1.381808 0.311665
v 0.333364 0.214398 0.405007
v -0.333364 0.214398 0.405007
v -0.405046 0.214398 -0.333649
v -0.405046 0.214398 0.333079
v -0.311704 1.381808 0.239737
v -0.311705 1.381808 -0.240307
v -0.349964 0.251104 -0.274267
v -0.349964 0.251104 0.273697
v -0.273249 1.321716 0.196982
v -0.273249 1.321716 -0.197552
v 0.273222 1.321716 -0.197552
v 0.273222 1.321716 0.196982
v 0.349937 0.251104 0.273697
v 0.349937 0.251104 -0.274267
v 0.311678 1.381808 -0.240307
v 0.311678 1.381808 0.239737
v 0.405020 0.214398 0.333079
v 0.405020 0.214398 -0.333649
vt 0.606422 0.789502
vt 0.581525 0.840362
vt 0.584909 0.814303
vt 0.609204 0.789502
vt 0.628201 0.814304
vt 0.631125 0.840362
vt 0.211946 0.505435
vt 0.212672 0.962447
vt 0.152776 0.964705
vt 0.606422 0.929623
vt 0.609205 0.929623
vt 0.002003 0.507135
vt 0.152051 0.507566
vt 0.834239 0.936891
vt 0.919856 0.936867
vt 0.936419 0.951673
vt 0.750737 0.937164
vt 0.733068 0.951673
vt 0.835161 0.792339
vt 0.750594 0.792259
vt 0.732981 0.777453
vt 0.919713 0.792381
vt 0.936332 0.777452
vt 0.732982 0.978185
vt 0.710479 0.777265
vt 0.936246 0.750940
vt 0.958831 0.777242
vt 0.958918 0.951462
vt 0.364103 0.359570
vt 0.099485 0.359190
vt 0.129326 0.328210
vt 0.099496 0.095112
vt 0.129303 0.125283
vt 0.364107 0.094932
vt 0.333437 0.125082
vt 0.333395 0.328488
vt 0.098371 0.393830
vt 0.064942 0.360462
vt 0.064953 0.096384
vt 0.363020 0.060293
vt 0.398719 0.360846
vt 0.280634 0.503968
vt 0.332768 0.962300
vt 0.281361 0.961464
vt 0.392559 0.964772
vt 0.391830 0.507662
vt 0.541866 0.506752
vt 0.605971 0.929583
vt 0.584050 0.840323
vt 0.605971 0.789462
vt 0.607571 0.791062
vt 0.632468 0.841923
vt 0.607571 0.931183
vt 0.332033 0.505367
vt 0.586974 0.814264
vt 0.629084 0.815863
vt 0.449257 0.023136
vt 0.449258 0.443195
vt 0.029199 0.443196
vt 0.050246 0.416166
vt 0.050245 0.046982
vt 0.419429 0.046982
vt 0.982771 0.054838
vt 0.519059 0.054838
vt 0.519059 0.010290
vt 0.519396 0.010808
vt 0.983108 0.010808
vt 0.983108 0.055356
vt 0.983058 0.055113
vt 0.519347 0.055113
vt 0.519347 0.010565
vt 0.982686 0.055042
vt 0.518975 0.055042
vt 0.518975 0.010494
vt 0.956388 0.082747
vt 0.545273 0.082747
vt 0.956760 0.082818
vt 0.545645 0.082818
vt 0.956810 0.083061
vt 0.545694 0.083061
vt 0.519396 0.055356
vt 0.956473 0.082543
vt 0.545357 0.082543
vt 0.112784 0.104915
vt 0.348447 0.104915
vt 0.348447 0.340577
vt 0.915277 0.116255
vt 0.586384 0.116255
vt 0.602829 0.725637
vt 0.632429 0.692130
vt 0.869232 0.692130
vt 0.885984 0.134362
vt 0.615677 0.134362
vt 0.653520 0.662487
vt 0.848141 0.662487
vt 0.886406 0.134676
vt 0.848563 0.662802
vt 0.653942 0.662802
vt 0.632851 0.692445
vt 0.586806 0.116569
vt 0.616099 0.134676
vt 0.869654 0.692445
vt 0.915699 0.116569
vt 0.586616 0.116326
vt 0.915508 0.116326
vt 0.886215 0.134433
vt 0.632661 0.692201
vt 0.653752 0.662559
vt 0.848372 0.662559
vt 0.869463 0.692201
vt 0.615909 0.134433
vt 0.848366 0.662283
vt 0.653745 0.662283
vt 0.615902 0.134158
vt 0.869457 0.691926
vt 0.886209 0.134158
vt 0.632655 0.691926
vt 0.586610 0.116051
vt 0.899204 0.725709
vt 0.899254 0.725952
vt 0.603251 0.725952
vt 0.915502 0.116051
vt 0.898917 0.725434
vt 0.602913 0.725434
vt 0.001495 0.964631
vt 0.936333 0.978185
vt 0.710565 0.951485
vt 0.732895 0.750940
vt 0.362990 0.394209
vt 0.098408 0.060474
vt 0.398722 0.096208
vt 0.543830 0.964216
vt 0.029199 0.023137
vt 0.419429 0.416165
vt 0.982771 0.010290
vt 0.983058 0.010565
vt 0.982686 0.010494
vt 0.112784 0.340577
vt 0.898832 0.725637
vt 0.603201 0.725709
vn -0.006500 0.014800 0.999900
vn 0.001000 0.006400 -1.000000
vn -0.128800 0.991600 -0.007500
vn -0.000000 0.001500 1.000000
vn 0.000000 0.008800 -1.000000
vn 0.238500 0.971100 -0.009000
vn -0.000000 1.000000 0.001400
vn 0.000000 -0.078600 0.996900
vn 1.000000 -0.000000 0.000000
vn 0.000000 0.078600 -0.996900
vn -1.000000 0.000000 -0.000000
vn -0.000000 0.005000 1.000000
vn 0.000000 -0.005000 -1.000000
vn -0.608000 0.793900 -0.006000
vn 0.655200 0.755400 0.001100
vn -0.238500 0.971100 -0.009000
vn 0.111500 0.993700 -0.009200
vn -0.001000 0.006400 -1.000000
vn 0.006500 0.014800 0.999900
vn 0.000000 -1.000000 -0.001400
vn 0.000000 -1.000000 -0.000000
vn -0.000000 0.000000 1.000000
vn 0.000000 0.000000 -1.000000
vn 0.000000 0.688400 -0.725300
vn -0.725300 0.688400 0.000000
vn -0.000000 0.688400 0.725300
vn 0.725300 0.688400 0.000000
vn 0.000000 1.000000 0.000000
vn 0.000000 0.169300 -0.985600
vn -0.079600 0.073100 -0.994100
vn 0.079600 0.073100 -0.994100
vn 0.000000 0.832200 -0.554500
vn 0.000000 -0.539000 -0.842300
vn -0.678600 0.004500 -0.734500
vn 0.672500 0.004800 -0.740100
vn 0.000000 0.071500 -0.997400
vn 0.000000 0.071500 0.997400
vn 0.678600 0.004500 0.734500
vn -0.672500 0.004800 0.740100
vn 0.000000 -0.539000 0.842300
vn 0.000000 0.832200 0.554500
vn -0.554500 0.832200 0.000000
vn -0.842300 -0.539000 0.000000
vn -0.740100 0.004800 -0.672500
vn -0.734500 0.004500 0.678600
vn -0.997400 0.071500 0.000000
vn 0.997400 0.071500 0.000000
vn 0.740100 0.004800 0.672500
vn 0.734500 0.004500 -0.678600
vn 0.842300 -0.539000 0.000000
vn 0.554500 0.832200 0.000000
vn -0.985600 0.169200 0.000000
vn -0.994100 0.073100 0.079800
vn -0.991800 0.096300 0.083600
vn 0.080000 0.073100 0.994100
vn 0.000000 0.169700 0.985500
vn 0.083400 0.096300 0.991900
vn 0.000000 0.168900 0.985600
vn 0.994100 0.073100 -0.079500
vn 0.985500 0.169500 0.000000
vn 0.991800 0.096300 -0.083900
vn 0.985600 0.169000 0.000000
vn -0.985500 0.169400 0.000000
vn -0.111500 0.993700 -0.009200
vn 0.268700 0.963200 0.001300
vn -0.655200 0.755400 0.001100
vn 0.608000 0.793900 -0.006000
vn -0.268700 0.963200 0.001300
vn 0.128800 0.991600 -0.007500
vn 0.083800 0.096300 -0.991800
vn -0.083800 0.096300 -0.991800
vn -0.672500 0.004800 -0.740100
vn 0.678600 0.004500 -0.734500
vn 0.672500 0.004800 0.740100
vn -0.678600 0.004500 0.734500
vn -0.734500 0.004500 -0.678600
vn -0.740100 0.004800 0.672500
vn 0.734500 0.004500 0.678600
vn 0.740100 0.004800 -0.672500
vn -0.991800 0.096300 -0.084300
vn -0.994200 0.073200 -0.079200
vn -0.083400 0.096300 0.991900
vn -0.080000 0.073100 0.994100
vn 0.991900 0.096300 0.083200
vn 0.994100 0.073100 0.080100
usemtl Texture
s off
f 28/1/1 5/2/1 2/3/1
f 3/4/2 1/5/2 4/6/2
f 1/7/3 2/8/3 5/9/3
f 28/1/4 6/10/4 5/2/4
f 7/11/5 3/4/5 4/6/5
f 7/12/6 4/13/6 5/9/6
f 28/14/7 25/15/7 12/16/7
f 6/17/7 28/14/7 9/18/7
f 28/14/7 12/16/7 9/18/7
f 3/19/7 7/20/7 10/21/7
f 8/22/7 3/19/7 11/23/7
f 3/19/7 10/21/7 11/23/7
f 10/21/7 7/20/7 6/17/7
f 11/23/7 12/16/7 25/15/7
f 13/24/8 9/18/8 12/16/8
f 14/25/9 10/21/9 9/18/9
f 15/26/10 11/23/10 10/21/10
f 15/27/11 16/28/11 12/16/11
f 20/29/7 17/30/7 13/31/7
f 17/30/7 18/32/7 14/33/7
f 19/34/7 15/35/7 14/33/7
f 20/29/7 16/36/7 15/35/7
f 21/37/12 17/30/12 20/29/12
f 21/38/9 22/39/9 18/32/9
f 23/40/13 19/34/13 18/32/13
f 24/41/11 20/29/11 19/34/11
f 2/8/14 1/7/14 3/42/14
f 29/43/15 28/44/15 3/42/15
f 26/45/16 27/46/16 8/47/16
f 8/48/5 27/49/5 3/50/5
f 28/51/4 26/52/4 25/53/4
f 30/54/17 27/46/17 26/45/17
f 3/50/18 27/49/18 30/55/18
f 28/51/19 29/56/19 26/52/19
f 21/57/20 24/58/20 23/59/20
f 32/60/21 33/61/21 34/62/21
f 36/63/9 35/64/9 34/65/9
f 31/66/22 34/67/22 35/68/22
f 38/69/11 37/70/11 32/71/11
f 37/72/23 36/73/23 33/74/23
f 40/75/24 41/76/24 36/73/24
f 39/77/25 40/78/25 37/70/25
f 42/79/26 39/80/26 38/81/26
f 41/82/27 42/83/27 35/64/27
f 44/84/28 45/85/28 46/86/28
f 47/87/29 48/88/29 41/76/29
f 44/89/29 49/90/29 50/91/29
f 41/76/30 48/88/30 49/90/30
f 50/91/31 47/87/31 40/75/31
f 51/92/32 52/93/32 48/88/32
f 53/94/33 54/95/33 50/91/33
f 49/90/34 48/88/34 52/93/34
f 50/91/35 54/95/35 51/92/35
f 54/95/36 53/94/36 52/93/36
f 57/96/37 56/97/37 55/98/37
f 59/99/38 62/100/38 58/101/38
f 60/102/39 56/97/39 57/96/39
f 59/99/40 55/98/40 56/97/40
f 61/103/41 57/96/41 58/101/41
f 63/104/42 64/105/42 68/106/42
f 66/107/43 70/108/43 69/109/43
f 65/110/44 69/109/44 68/106/44
f 66/107/45 63/104/45 67/111/45
f 68/106/46 69/109/46 70/108/46
f 71/112/47 72/113/47 73/114/47
f 75/115/48 71/112/48 74/116/48
f 76/117/49 77/118/49 73/114/49
f 72/113/50 71/112/50 75/115/50
f 74/116/51 73/114/51 77/118/51
f 39/77/52 64/105/52 63/104/52
f 40/78/53 63/104/53 66/107/53
f 39/77/54 46/119/54 65/110/54
f 39/80/55 62/100/55 59/99/55
f 42/79/56 61/103/56 62/100/56
f 42/79/57 43/120/57 60/102/57
f 46/121/58 59/99/58 60/102/58
f 42/83/59 77/118/59 76/117/59
f 78/122/60 77/118/60 42/83/60
f 41/82/61 44/123/61 75/115/61
f 43/124/62 76/117/62 75/115/62
f 66/107/63 65/110/63 46/119/63
f 4/13/64 1/7/64 5/9/64
f 6/125/65 7/12/65 5/9/65
f 9/18/7 10/21/7 6/17/7
f 8/22/7 11/23/7 25/15/7
f 16/126/8 13/24/8 12/16/8
f 13/127/9 14/25/9 9/18/9
f 14/128/10 15/26/10 10/21/10
f 11/23/11 15/27/11 12/16/11
f 16/36/7 20/29/7 13/31/7
f 13/31/7 17/30/7 14/33/7
f 18/32/7 19/34/7 14/33/7
f 19/34/7 20/29/7 15/35/7
f 24/129/12 21/37/12 20/29/12
f 17/30/9 21/38/9 18/32/9
f 22/130/13 23/40/13 18/32/13
f 23/131/11 24/41/11 19/34/11
f 28/44/66 2/8/66 3/42/66
f 30/54/67 29/43/67 3/42/67
f 25/132/68 26/45/68 8/47/68
f 29/43/69 30/54/69 26/45/69
f 22/133/20 21/57/20 23/59/20
f 31/134/21 32/60/21 34/62/21
f 33/135/9 36/63/9 34/65/9
f 38/81/22 31/66/22 35/68/22
f 31/136/11 38/69/11 32/71/11
f 32/137/23 37/72/23 33/74/23
f 37/72/24 40/75/24 36/73/24
f 38/69/25 39/77/25 37/70/25
f 35/68/26 42/79/26 38/81/26
f 36/63/27 41/82/27 35/64/27
f 43/138/28 44/84/28 46/86/28
f 40/75/29 47/87/29 41/76/29
f 45/139/29 44/89/29 50/91/29
f 44/89/70 41/76/70 49/90/70
f 45/139/71 50/91/71 40/75/71
f 47/87/32 51/92/32 48/88/32
f 49/90/33 53/94/33 50/91/33
f 53/94/72 49/90/72 52/93/72
f 47/87/73 50/91/73 51/92/73
f 51/92/36 54/95/36 52/93/36
f 58/101/37 57/96/37 55/98/37
f 55/98/74 59/99/74 58/101/74
f 61/103/75 60/102/75 57/96/75
f 60/102/40 59/99/40 56/97/40
f 62/100/41 61/103/41 58/101/41
f 67/111/42 63/104/42 68/106/42
f 65/110/43 66/107/43 69/109/43
f 64/105/76 65/110/76 68/106/76
f 70/108/77 66/107/77 67/111/77
f 67/111/46 68/106/46 70/108/46
f 74/116/47 71/112/47 73/114/47
f 78/122/78 75/115/78 74/116/78
f 72/113/79 76/117/79 73/114/79
f 76/117/50 72/113/50 75/115/50
f 78/122/51 74/116/51 77/118/51
f 40/78/52 39/77/52 63/104/52
f 45/140/80 40/78/80 66/107/80
f 64/105/81 39/77/81 65/110/81
f 46/121/82 39/80/82 59/99/82
f 39/80/56 42/79/56 62/100/56
f 61/103/83 42/79/83 60/102/83
f 43/120/58 46/121/58 60/102/58
f 43/124/84 42/83/84 76/117/84
f 41/82/60 78/122/60 42/83/60
f 78/122/85 41/82/85 75/115/85
f 44/123/62 43/124/62 75/115/62
f 45/140/63 66/107/63 46/119/63
l 46 69
