# Blender v2.72 (sub 0) OBJ File: 'Library.blend'
# www.blender.org
mtllib model.mtl
o Library
v -0.063641 1.450151 -0.180036
v -0.063641 1.450151 0.041656
v -0.362444 1.450150 0.041656
v -0.063641 1.729676 -0.180036
v -0.063641 1.729676 0.041657
v -0.362444 1.729676 0.041656
v -0.362444 1.729676 -0.180036
v -0.362444 1.450150 -0.180036
v 0.258558 0.680466 0.009363
v 0.258558 0.680466 -0.212329
v 0.387754 0.740711 -0.212329
v 0.100762 1.018860 0.009363
v 0.100762 1.018860 -0.212329
v 0.229958 1.079105 -0.212329
v 0.229958 1.079105 0.009363
v 0.387754 0.740711 0.009363
v 0.784168 1.761718 0.133475
v 0.784168 1.761718 -0.226525
v 0.049169 1.761718 -0.226525
v 0.049169 1.761718 0.133475
v 0.784169 1.307968 0.133475
v 0.784168 1.307968 -0.226525
v 0.049169 1.307968 -0.226525
v 0.049169 1.307968 0.133475
v -0.845449 1.859158 0.187850
v -0.845449 1.859158 -0.280900
v 0.842050 1.859158 -0.280900
v 0.842050 1.859158 0.187850
v -0.845449 1.933427 0.187850
v -0.845449 1.933427 -0.280900
v 0.842050 1.933427 -0.280900
v 0.842050 1.933427 0.187850
v -0.845449 1.234158 0.187850
v -0.845449 1.234158 -0.280900
v 0.842050 1.234158 -0.280900
v 0.842050 1.234158 0.187850
v -0.845449 1.308427 0.187850
v -0.845449 1.308427 -0.280900
v 0.842050 1.308427 -0.280900
v 0.842050 1.308427 0.187850
v -0.845449 0.609158 0.187850
v -0.845449 0.609158 -0.280900
v 0.842050 0.609158 -0.280900
v 0.842050 0.609158 0.187850
v -0.845449 0.683428 0.187850
v -0.845449 0.683428 -0.280900
v 0.842050 0.683427 -0.280900
v 0.842050 0.683427 0.187850
v -0.939199 -0.004072 0.312850
v -0.939199 -0.004072 -0.312150
v 0.935800 -0.004073 -0.312150
v 0.935800 -0.004073 0.312850
v -0.939200 2.495927 0.312849
v -0.939198 2.495927 -0.312151
v 0.935801 2.495927 -0.312150
v 0.935800 2.495927 0.312850
v 0.810801 2.370927 -0.312150
v -0.814199 2.370927 -0.312151
v 0.810801 0.120927 -0.312150
v -0.814199 0.120927 -0.312150
v 0.810801 2.370927 0.171693
v 0.810801 0.120927 0.171692
v -0.814199 2.370927 0.171692
v -0.814199 0.120927 0.171692
v -0.436757 1.307861 -0.195082
v -0.810134 1.307861 -0.195082
v -0.810134 1.307861 0.026610
v -0.810134 1.450414 0.026610
v -0.810134 1.450414 -0.195082
v -0.436757 1.307861 0.026610
v -0.436757 1.450414 0.026610
v -0.436757 1.450414 -0.195082
v 0.097937 1.140131 0.089341
v 0.097937 1.140131 -0.270659
v -0.637063 1.140131 -0.270659
v -0.637063 1.140131 0.089341
v 0.097936 0.686381 0.089341
v 0.097937 0.686381 -0.270659
v -0.637063 0.686381 -0.270659
v -0.637063 0.686381 0.089341
v 0.692874 0.682997 0.034802
v 0.692874 0.962522 0.034802
v 0.692874 0.962522 -0.186890
v 0.394071 0.962522 -0.186890
v 0.394071 0.962522 0.034802
v 0.692874 0.682997 -0.186890
v 0.394071 0.682997 -0.186890
v 0.394071 0.682997 0.034802
v -0.024201 1.449685 0.012106
v -0.397577 1.449685 0.012106
v -0.397577 1.449685 -0.209586
v -0.397577 1.307132 -0.209586
v -0.397577 1.307132 0.012106
v -0.024201 1.449685 -0.209586
v -0.024201 1.307132 -0.209586
v -0.024201 1.307132 0.012106
v -0.107673 0.120882 -0.020252
v -0.107673 0.120882 -0.219775
v 0.020624 0.120882 -0.219775
v -0.107673 0.456921 -0.020252
v -0.107673 0.456921 -0.219775
v 0.020624 0.456921 -0.219775
v 0.020624 0.456921 -0.020252
v 0.020624 0.120882 -0.020252
v -0.125853 0.122055 -0.203838
v -0.125853 0.122055 0.120162
v -0.787353 0.122055 0.120162
v -0.787353 0.122055 -0.203838
v -0.125853 0.530430 -0.203837
v -0.125853 0.530430 0.120162
v -0.787353 0.530430 0.120162
v -0.787353 0.530430 -0.203838
v 0.443592 0.530430 -0.034807
v 0.767592 0.530430 -0.034807
v 0.767592 0.530430 -0.290463
v 0.443592 0.530430 -0.290463
v 0.443592 0.122055 -0.034807
v 0.767592 0.122055 -0.034807
v 0.767592 0.122055 -0.290463
v 0.443592 0.122055 -0.290463
v 0.377005 1.995981 0.009363
v 0.219209 2.334376 0.009363
v 0.219209 2.334376 -0.212329
v 0.090013 2.274130 -0.212329
v 0.090013 2.274130 0.009363
v 0.377005 1.995981 -0.212329
v 0.247808 1.935736 -0.212329
v 0.247808 1.935736 0.009363
v 0.213710 1.993832 -0.212329
v 0.213710 1.993832 0.009363
v 0.084513 1.933586 0.009363
v 0.055914 2.332226 -0.212329
v 0.055914 2.332226 0.009363
v -0.073283 2.271981 0.009363
v -0.073283 2.271981 -0.212329
v 0.084513 1.933586 -0.212329
v 0.216872 0.121752 -0.204918
v 0.438564 0.121752 -0.204918
v 0.438564 0.121752 0.093885
v 0.216872 0.401277 -0.204918
v 0.438565 0.401277 -0.204918
v 0.438564 0.401277 0.093885
v 0.216872 0.401277 0.093885
v 0.216872 0.121752 0.093885
v -0.053031 1.931144 0.034802
v -0.053031 2.210670 0.034802
v -0.053031 2.210670 -0.186890
v -0.301103 2.210670 -0.186890
v -0.301103 2.210670 0.034802
v -0.053031 1.931144 -0.186890
v -0.301103 1.931144 -0.186890
v -0.301103 1.931144 0.034802
v -0.536309 2.331211 0.045765
v -0.536309 2.001493 -0.129439
v -0.314617 2.001493 -0.129439
v -0.314617 1.934602 -0.003555
v -0.536309 1.934602 -0.003555
v -0.314617 2.331211 0.045765
v -0.314617 2.264319 0.171649
v -0.536309 2.264319 0.171649
v 0.532531 1.933546 0.093885
v 0.532531 2.213071 0.093885
v 0.754223 2.213071 0.093885
v 0.754223 2.213071 -0.204918
v 0.532531 2.213071 -0.204918
v 0.754223 1.933546 0.093885
v 0.754223 1.933546 -0.204918
v 0.532531 1.933546 -0.204918
vt 0.205171 0.980892
vt 0.205171 0.820553
vt 0.297139 0.820553
vt 0.111857 0.980892
vt 0.111857 0.820553
vt 0.204951 0.735585
vt 0.297036 0.735859
vt 0.296750 0.980892
vt 0.296750 0.820553
vt 0.389369 0.820553
vt 0.297122 0.820519
vt 0.205120 0.820519
vt 0.204894 0.735500
vt 0.983763 0.300875
vt 0.704783 0.300875
vt 0.704783 0.168147
vt 0.983763 0.467369
vt 0.704783 0.467369
vt 0.552641 0.300875
vt 0.552641 0.168147
vt 0.983763 0.168807
vt 0.704783 0.168807
vt 0.704783 0.002327
vt 0.552511 0.168176
vt 0.704726 0.168176
vt 0.704726 0.300962
vt 0.982824 0.785851
vt 0.704265 0.785851
vt 0.704265 0.652883
vt 0.704265 0.653544
vt 0.982824 0.653543
vt 0.547470 0.652912
vt 0.704208 0.652912
vt 0.704208 0.785939
vt 0.982824 0.486762
vt 0.547600 0.785851
vt 0.547600 0.652883
vt 0.982824 0.952648
vt 0.704265 0.952648
vt 0.285037 0.558340
vt 0.034068 0.558341
vt 0.034067 0.488627
vt 0.035533 0.660902
vt 0.035533 0.591188
vt 0.286502 0.591188
vt 0.305093 0.660902
vt 0.286502 0.660902
vt 0.016943 0.660902
vt 0.287968 0.693750
vt 0.036998 0.693750
vt 0.302201 0.089668
vt 0.033930 0.089668
vt 0.033930 0.015148
vt 0.035497 0.199300
vt 0.035497 0.124780
vt 0.303768 0.124780
vt 0.323640 0.199300
vt 0.303768 0.199300
vt 0.015625 0.199300
vt 0.305334 0.234412
vt 0.037063 0.234412
vt 0.304599 0.321395
vt 0.036328 0.321395
vt 0.036328 0.246875
vt 0.034340 0.430913
vt 0.034340 0.356394
vt 0.302610 0.356394
vt 0.302610 0.430914
vt 0.322482 0.356394
vt 0.014468 0.430913
vt 0.304177 0.466026
vt 0.035906 0.466026
vt 0.161922 0.325047
vt 0.161921 0.026968
vt 0.261281 0.026968
vt 0.298781 0.321922
vt 0.298781 0.023843
vt 0.398141 0.023843
vt 0.533218 0.315625
vt 0.533218 0.713063
vt 0.433858 0.713063
vt 0.134298 0.726127
vt 0.034938 0.726127
vt 0.034939 0.328688
vt 0.000000 0.000000
vt 0.546718 0.000000
vt 0.546718 0.734093
vt 0.134298 0.328688
vt 0.183649 0.351272
vt 0.384508 0.690479
vt 0.380798 0.360963
vt 0.434546 0.045392
vt 0.436650 0.287749
vt 0.125516 0.303497
vt 0.123412 0.061141
vt 0.187358 0.680789
vt 0.254508 0.350475
vt 0.313648 0.691277
vt 0.506708 0.044766
vt 0.053354 0.304124
vt 0.051250 0.061767
vt 0.000000 0.298079
vt 0.258335 0.298079
vt 0.258335 0.655773
vt 0.983137 0.786153
vt 0.983137 0.952935
vt 0.704578 0.952935
vt 0.704578 0.786138
vt 0.548131 0.786138
vt 0.548131 0.653170
vt 0.983137 0.653830
vt 0.704578 0.653831
vt 0.704578 0.487049
vt 0.548001 0.653199
vt 0.704521 0.653199
vt 0.704521 0.786226
vt 0.704578 0.786153
vt 0.982824 0.652883
vt 0.552512 0.300962
vt 0.704265 0.486762
vt 0.983763 0.002327
vt 0.306588 0.820553
vt 0.306485 0.735859
vt 0.306199 0.980892
vt 0.306199 0.820553
vt 0.306466 0.735774
vt 0.306571 0.820519
vt 0.297017 0.735774
vt 0.983763 0.168147
vt 0.297139 0.980892
vt 0.389369 0.980892
vt 0.547470 0.785939
vt 0.285037 0.488627
vt 0.305093 0.591188
vt 0.016943 0.591188
vt 0.302201 0.015148
vt 0.323640 0.124780
vt 0.015625 0.124781
vt 0.304599 0.246875
vt 0.322482 0.430914
vt 0.014468 0.356394
vt 0.261281 0.325047
vt 0.398141 0.321922
vt 0.433858 0.315625
vt 0.000000 0.734093
vt 0.258218 0.679991
vt 0.309938 0.361761
vt 0.508812 0.287122
vt 0.000000 0.655773
vt 0.704578 0.653170
vt 0.983137 0.487049
vt 0.548001 0.786226
vt 0.306588 0.980892
vn 0.000000 -1.000000 0.000000
vn 0.000000 0.000000 -1.000000
vn -1.000000 0.000000 -0.000000
vn -0.000000 0.000000 1.000000
vn 1.000000 0.000000 0.000000
vn -0.000000 1.000000 0.000000
vn 0.422600 -0.906300 -0.000000
vn 0.906300 0.422600 0.000000
vn -0.906300 -0.422600 -0.000000
vn -0.422600 0.906300 0.000000
vn 0.000000 -0.883100 -0.469200
vn 0.000000 -0.469200 0.883100
vn 0.000000 0.469200 -0.883100
vn 0.000000 0.883100 0.469200
usemtl Texture
s off
f 2/1/1 3/2/1 8/3/1
f 4/1/2 1/4/2 8/5/2
f 6/6/3 7/7/3 8/3/3
f 5/8/4 6/9/4 3/10/4
f 4/11/5 5/12/5 2/13/5
f 4/1/6 7/2/6 6/9/6
f 10/14/7 11/15/7 16/16/7
f 9/17/4 16/18/4 15/15/4
f 14/19/8 15/20/8 16/16/8
f 13/21/2 14/22/2 11/23/2
f 9/24/9 12/25/9 13/26/9
f 15/15/10 14/22/10 13/21/10
f 18/27/6 19/28/6 20/29/6
f 24/28/1 23/30/1 22/31/1
f 17/32/5 21/33/5 22/34/5
f 18/35/2 22/31/2 23/30/2
f 23/36/3 24/37/3 20/29/3
f 17/38/4 20/39/4 24/28/4
f 26/40/1 27/41/1 28/42/1
f 32/43/6 31/44/6 30/45/6
f 25/46/3 29/47/3 30/45/3
f 30/45/2 31/44/2 27/41/2
f 31/44/5 32/43/5 28/48/5
f 25/49/4 28/50/4 32/43/4
f 34/51/1 35/52/1 36/53/1
f 40/54/6 39/55/6 38/56/6
f 33/57/3 37/58/3 38/56/3
f 38/56/2 39/55/2 35/52/2
f 39/55/5 40/54/5 36/59/5
f 33/60/4 36/61/4 40/54/4
f 42/62/1 43/63/1 44/64/1
f 48/65/6 47/66/6 46/67/6
f 45/68/3 46/67/3 42/69/3
f 42/62/2 46/67/2 47/66/2
f 47/66/5 48/65/5 44/70/5
f 41/71/4 44/72/4 48/65/4
f 50/73/1 51/74/1 52/75/1
f 53/76/6 56/77/6 55/78/6
f 49/79/3 53/80/3 54/81/3
f 55/82/5 56/83/5 52/84/5
f 49/85/4 52/86/4 56/87/4
f 55/82/2 51/88/2 59/89/2
f 54/81/2 58/90/2 60/91/2
f 55/78/2 57/92/2 58/93/2
f 50/73/2 60/94/2 59/95/2
f 57/96/3 59/89/3 62/97/3
f 60/91/5 58/90/5 63/98/5
f 58/93/1 57/92/1 61/99/1
f 60/94/6 64/100/6 62/101/6
f 62/102/2 64/103/2 63/104/2
f 66/15/3 67/22/3 68/21/3
f 72/24/6 69/25/6 68/26/6
f 68/21/4 67/22/4 70/23/4
f 67/19/1 66/20/1 65/16/1
f 72/17/2 65/18/2 66/15/2
f 71/14/5 70/15/5 65/16/5
f 76/105/4 80/106/4 77/107/4
f 78/108/5 74/109/5 73/110/5
f 75/111/2 74/112/2 78/113/2
f 80/114/3 76/115/3 75/116/3
f 76/105/6 73/117/6 74/112/6
f 80/118/1 79/27/1 78/28/1
f 82/2/6 83/9/6 84/8/6
f 85/11/3 84/12/3 87/13/3
f 84/8/2 83/9/2 86/10/2
f 83/6/5 82/7/5 81/3/5
f 85/1/4 88/4/4 81/5/4
f 87/1/1 86/2/1 81/3/1
f 90/15/3 91/22/3 92/21/3
f 93/25/1 92/26/1 95/119/1
f 92/21/2 91/22/2 94/23/2
f 91/19/6 90/20/6 89/16/6
f 96/17/4 89/18/4 90/15/4
f 95/14/5 94/15/5 89/16/5
f 98/14/1 99/15/1 104/16/1
f 97/17/4 104/18/4 103/15/4
f 102/19/5 103/20/5 104/16/5
f 101/21/2 102/22/2 99/23/2
f 97/24/3 100/25/3 101/26/3
f 103/15/6 102/22/6 101/21/6
f 106/27/1 107/28/1 108/29/1
f 109/27/6 112/28/6 111/30/6
f 105/32/5 109/33/5 110/34/5
f 106/35/4 110/31/4 111/30/4
f 111/36/3 112/37/3 108/29/3
f 105/38/2 108/39/2 112/28/2
f 116/27/3 120/38/3 117/39/3
f 114/36/4 113/37/4 117/29/4
f 115/31/5 114/30/5 118/120/5
f 120/32/2 116/33/2 115/34/2
f 113/28/6 114/30/6 115/31/6
f 119/27/1 118/28/1 117/29/1
f 122/15/10 123/22/10 124/21/10
f 128/24/9 125/25/9 124/26/9
f 124/21/2 123/22/2 126/23/2
f 123/19/8 122/20/8 121/16/8
f 128/17/4 121/18/4 122/15/4
f 127/14/7 126/15/7 121/16/7
f 130/14/7 131/15/7 136/16/7
f 132/14/2 129/17/2 136/18/2
f 134/19/9 135/20/9 136/16/9
f 130/121/4 133/21/4 134/22/4
f 132/25/8 133/26/8 130/119/8
f 135/15/10 134/22/10 133/21/10
f 138/1/1 139/2/1 144/122/1
f 140/1/3 137/4/3 144/5/3
f 142/6/4 143/123/4 144/122/4
f 141/124/5 142/125/5 139/10/5
f 137/126/2 140/127/2 141/12/2
f 143/2/6 142/125/6 141/124/6
f 146/2/6 147/9/6 148/8/6
f 152/128/3 149/11/3 148/12/3
f 148/8/2 147/9/2 150/10/2
f 147/6/5 146/7/5 145/3/5
f 149/1/4 152/4/4 145/5/4
f 151/1/1 150/2/1 145/3/1
f 154/15/11 155/22/11 156/21/11
f 157/25/12 156/26/12 159/119/12
f 156/21/5 155/22/5 158/23/5
f 155/19/13 154/20/13 153/16/13
f 160/17/3 153/18/3 154/15/3
f 160/129/14 159/14/14 158/15/14
f 162/2/6 163/125/6 164/124/6
f 168/126/2 165/127/2 164/12/2
f 164/124/5 163/125/5 166/10/5
f 163/6/4 162/123/4 161/122/4
f 165/1/3 168/4/3 161/5/3
f 167/1/1 166/2/1 161/122/1
f 1/130/1 2/1/1 8/3/1
f 7/2/2 4/1/2 8/5/2
f 3/2/3 6/6/3 8/3/3
f 2/131/4 5/8/4 3/10/4
f 1/128/5 4/11/5 2/13/5
f 5/8/6 4/1/6 6/9/6
f 9/129/7 10/14/7 16/16/7
f 12/14/4 9/17/4 15/15/4
f 11/15/8 14/19/8 16/16/8
f 10/121/2 13/21/2 11/23/2
f 10/119/9 9/24/9 13/26/9
f 12/14/10 15/15/10 13/21/10
f 17/118/6 18/27/6 20/29/6
f 21/27/1 24/28/1 22/31/1
f 18/132/5 17/32/5 22/34/5
f 19/120/2 18/35/2 23/30/2
f 19/28/3 23/36/3 20/29/3
f 21/27/4 17/38/4 24/28/4
f 25/133/1 26/40/1 28/42/1
f 29/47/6 32/43/6 30/45/6
f 26/134/3 25/46/3 30/45/3
f 26/40/2 30/45/2 27/41/2
f 27/135/5 31/44/5 28/48/5
f 29/47/4 25/49/4 32/43/4
f 33/136/1 34/51/1 36/53/1
f 37/58/6 40/54/6 38/56/6
f 34/137/3 33/57/3 38/56/3
f 34/51/2 38/56/2 35/52/2
f 35/138/5 39/55/5 36/59/5
f 37/58/4 33/60/4 40/54/4
f 41/139/1 42/62/1 44/64/1
f 45/68/6 48/65/6 46/67/6
f 41/140/3 45/68/3 42/69/3
f 43/63/2 42/62/2 47/66/2
f 43/141/5 47/66/5 44/70/5
f 45/68/4 41/71/4 48/65/4
f 49/142/1 50/73/1 52/75/1
f 54/143/6 53/76/6 55/78/6
f 50/144/3 49/79/3 54/81/3
f 51/88/5 55/82/5 52/84/5
f 53/145/4 49/85/4 56/87/4
f 57/96/2 55/82/2 59/89/2
f 50/144/2 54/81/2 60/91/2
f 54/143/2 55/78/2 58/93/2
f 51/74/2 50/73/2 59/95/2
f 61/146/3 57/96/3 62/97/3
f 64/147/5 60/91/5 63/98/5
f 63/148/1 58/93/1 61/99/1
f 59/95/6 60/94/6 62/101/6
f 61/149/2 62/102/2 63/104/2
f 69/14/3 66/15/3 68/21/3
f 71/119/6 72/24/6 68/26/6
f 71/121/4 68/21/4 70/23/4
f 70/15/1 67/19/1 65/16/1
f 69/14/2 72/17/2 66/15/2
f 72/129/5 71/14/5 65/16/5
f 73/117/4 76/105/4 77/107/4
f 77/150/5 78/108/5 73/110/5
f 79/151/2 75/111/2 78/113/2
f 79/152/3 80/114/3 75/116/3
f 75/111/6 76/105/6 74/112/6
f 77/29/1 80/118/1 78/28/1
f 85/1/6 82/2/6 84/8/6
f 88/128/3 85/11/3 87/13/3
f 87/131/2 84/8/2 86/10/2
f 86/2/5 83/6/5 81/3/5
f 82/2/4 85/1/4 81/5/4
f 88/130/1 87/1/1 81/3/1
f 93/14/3 90/15/3 92/21/3
f 96/24/1 93/25/1 95/119/1
f 95/121/2 92/21/2 94/23/2
f 94/15/6 91/19/6 89/16/6
f 93/14/4 96/17/4 90/15/4
f 96/129/5 95/14/5 89/16/5
f 97/129/1 98/14/1 104/16/1
f 100/14/4 97/17/4 103/15/4
f 99/15/5 102/19/5 104/16/5
f 98/121/2 101/21/2 99/23/2
f 98/119/3 97/24/3 101/26/3
f 100/14/6 103/15/6 101/21/6
f 105/118/1 106/27/1 108/29/1
f 110/31/6 109/27/6 111/30/6
f 106/132/5 105/32/5 110/34/5
f 107/120/4 106/35/4 111/30/4
f 107/28/3 111/36/3 108/29/3
f 109/27/2 105/38/2 112/28/2
f 113/28/3 116/27/3 117/39/3
f 118/28/4 114/36/4 117/29/4
f 119/35/5 115/31/5 118/120/5
f 119/132/2 120/32/2 115/34/2
f 116/27/6 113/28/6 115/31/6
f 120/118/1 119/27/1 117/29/1
f 125/14/10 122/15/10 124/21/10
f 127/119/9 128/24/9 124/26/9
f 127/121/2 124/21/2 126/23/2
f 126/15/8 123/19/8 121/16/8
f 125/14/4 128/17/4 122/15/4
f 128/129/7 127/14/7 121/16/7
f 129/129/7 130/14/7 136/16/7
f 135/15/2 132/14/2 136/18/2
f 131/15/9 134/19/9 136/16/9
f 131/23/4 130/121/4 134/22/4
f 129/24/8 132/25/8 130/119/8
f 132/14/10 135/15/10 133/21/10
f 137/153/1 138/1/1 144/122/1
f 143/2/3 140/1/3 144/5/3
f 139/2/4 142/6/4 144/122/4
f 138/131/5 141/124/5 139/10/5
f 138/13/2 137/126/2 141/12/2
f 140/1/6 143/2/6 141/124/6
f 149/1/6 146/2/6 148/8/6
f 151/13/3 152/128/3 148/12/3
f 151/131/2 148/8/2 150/10/2
f 150/2/5 147/6/5 145/3/5
f 146/2/4 149/1/4 145/5/4
f 152/130/1 151/1/1 145/3/1
f 157/14/11 154/15/11 156/21/11
f 160/24/12 157/25/12 159/119/12
f 159/121/5 156/21/5 158/23/5
f 158/15/13 155/19/13 153/16/13
f 157/14/3 160/17/3 154/15/3
f 153/16/14 160/129/14 158/15/14
f 165/1/6 162/2/6 164/124/6
f 167/13/2 168/126/2 164/12/2
f 167/131/5 164/124/5 166/10/5
f 166/2/4 163/6/4 161/122/4
f 162/2/3 165/1/3 161/5/3
f 168/153/1 167/1/1 161/122/1
