# Blender v2.76 (sub 0) OBJ File: ''
# www.blender.org
mtllib model.mtl
v -0.023813 -0.049061 0.272159
v 0.010217 -0.048538 0.254358
v 0.010847 -0.065780 0.364086
v -0.023182 -0.066303 0.381887
v 0.010911 -0.064370 0.364307
v 0.053707 -0.052441 0.271183
v 0.019479 -0.047539 0.254462
v 0.020111 -0.064781 0.364189
v 0.054339 -0.069681 0.380910
v 0.020046 -0.066190 0.363968
v 0.016098 -0.018636 0.038929
v 0.018080 -0.072779 0.383512
v 0.013155 -0.072565 0.383574
v 0.008903 -0.014102 0.039683
v 0.011174 -0.018423 0.038991
v 0.010884 -0.068245 0.384266
v 0.013538 -0.064139 0.384897
v 0.011557 -0.009995 0.040313
v 0.018463 -0.064353 0.384833
v 0.016481 -0.010209 0.040252
v 0.020734 -0.068674 0.384143
v 0.018752 -0.014530 0.039559
v 0.008404 0.057264 -0.442692
v 0.006133 0.061584 -0.441999
v 0.008787 0.065690 -0.441370
v 0.013712 0.065476 -0.441432
v 0.015983 0.061155 -0.442123
v 0.013329 0.057050 -0.442753
v 0.007090 0.055559 -0.444985
v 0.003704 0.062001 -0.443952
v 0.007661 0.068123 -0.443014
v 0.015002 0.067804 -0.443105
v 0.018388 0.061363 -0.444137
v 0.014432 0.055241 -0.445076
v 0.010762 0.069433 -0.493379
v 0.015809 -0.068460 0.384204
v 0.010281 -0.047130 0.254579
v 0.019415 -0.048948 0.254240
vt 0.924123 0.020120
vt 0.866832 0.006982
vt 0.866832 0.090504
vt 0.924111 0.103642
vt 0.955953 0.600485
vt 0.955383 0.991439
vt 0.947499 0.991439
vt 0.940160 0.600484
vt 0.948056 0.600485
vt 0.963844 0.600486
vt 0.963237 0.991442
vt 0.955340 0.991441
vt 0.955947 0.600486
vt 0.939571 0.991440
vt 0.963850 0.600485
vt 0.963268 0.991440
vt 0.947558 0.006239
vt 0.939662 0.006239
vt 0.955392 0.006240
vt 0.947509 0.006240
vt 0.939626 0.006240
vt 0.963323 0.006240
vt 0.904959 0.116902
vt 0.913204 0.117164
vt 0.913368 0.121064
vt 0.919932 0.116978
vt 0.923991 0.121135
vt 0.876545 0.116458
vt 0.882808 0.116895
vt 0.882365 0.120744
vt 0.889761 0.116921
vt 0.889756 0.120793
vt 0.897183 0.116726
vt 0.896891 0.120847
vt 0.904391 0.120919
vt 0.897990 0.177760
vt 0.873301 0.121026
vt 0.904591 0.186497
vt 0.904591 0.190130
vt 0.897610 0.188313
vt 0.897610 0.184680
vt 0.890629 0.186497
vt 0.890629 0.190130
vt 0.897610 0.191947
vn -0.065700 -0.985800 -0.154500
vn 0.024000 0.987600 0.155000
vn 0.065700 0.985800 0.154500
vn -0.024000 -0.987600 -0.155000
vn -0.044800 -0.986900 -0.154800
vn -0.887600 -0.455900 -0.066500
vn -0.842700 0.531100 0.088300
vn 0.044800 0.986900 0.154800
vn 0.887600 0.455900 0.066500
vn 0.842700 -0.531100 -0.088300
vn -0.027000 -0.794800 0.606200
vn -0.609900 -0.427600 0.667200
vn -0.578900 0.255400 0.774400
vn -0.578800 0.255400 0.774500
vn -0.578800 0.255400 0.774400
vn 0.035100 0.570500 0.820500
vn 0.035100 0.570500 0.820600
vn 0.035100 0.570600 0.820500
vn 0.618300 0.203400 0.759200
vn 0.618200 0.203500 0.759200
vn 0.618100 0.203400 0.759300
vn 0.587200 -0.479500 0.652100
vn 0.587000 -0.479600 0.652300
vn 0.587100 -0.479500 0.652200
vn -0.045000 -0.959400 -0.278500
vn -0.881200 -0.432600 -0.190900
vn -0.836700 0.546400 -0.037300
vn 0.043800 0.998600 0.028700
vn 0.879700 0.471900 -0.058900
vn 0.835200 -0.507200 -0.212500
vn 0.005600 -0.155300 0.987900
vn 0.005600 -0.155200 0.987900
vn 0.005700 -0.155200 0.987900
vn 0.005800 -0.155000 0.987900
vn 0.005900 -0.155300 0.987900
vn 0.005800 -0.155100 0.987900
vn 0.005600 -0.155100 0.987900
vn -0.610100 -0.427300 0.667200
vn -0.578900 0.255400 0.774300
vn 0.618000 0.203300 0.759400
vn 0.587300 -0.479500 0.652100
usemtl None
s 1
f 1/1/1 2/2/1 3/3/1
f 1/1/2 4/4/2 5/3/2
f 6/1/3 7/2/3 8/3/3
f 6/1/4 9/4/4 10/3/4
f 11/5/5 12/6/5 13/7/5
f 14/8/6 15/9/6 13/7/6
f 14/10/7 16/11/7 17/12/7
f 18/13/8 17/12/8 19/7/8
f 20/9/9 19/7/9 21/14/9
f 22/15/10 21/16/10 12/6/10
f 11/5/5 15/9/5 23/17/5
f 14/8/6 24/18/6 23/17/6
f 14/10/7 18/13/7 25/19/7
f 20/9/8 26/20/8 25/19/8
f 22/8/9 27/21/9 26/20/9
f 11/5/10 28/19/10 27/22/10
f 28/23/11 23/24/11 29/25/11
f 24/26/12 30/27/12 29/25/12
f 24/28/13 25/29/14 31/30/15
f 26/31/16 32/32/17 31/30/18
f 26/31/19 27/33/20 33/34/21
f 27/33/22 28/23/23 34/35/24
f 34/35/25 29/25/25 35/36/25
f 29/25/26 30/27/26 35/36/26
f 30/37/27 31/30/27 35/36/27
f 31/30/28 32/32/28 35/36/28
f 32/32/29 33/34/29 35/36/29
f 33/34/30 34/35/30 35/36/30
f 13/38/31 12/39/32 36/40/33
f 16/41/34 13/38/31 36/40/33
f 17/42/35 16/41/34 36/40/33
f 19/43/36 17/42/35 36/40/33
f 21/44/37 19/43/36 36/40/33
f 12/39/32 21/44/37 36/40/33
f 4/4/1 1/1/1 3/3/1
f 37/2/2 1/1/2 5/3/2
f 9/4/3 6/1/3 8/3/3
f 38/2/4 6/1/4 10/3/4
f 15/9/5 11/5/5 13/7/5
f 16/14/6 14/8/6 13/7/6
f 18/13/7 14/10/7 17/12/7
f 20/9/8 18/13/8 19/7/8
f 22/8/9 20/9/9 21/14/9
f 11/5/10 22/15/10 12/6/10
f 28/19/5 11/5/5 23/17/5
f 15/9/6 14/8/6 23/17/6
f 24/22/7 14/10/7 25/19/7
f 18/13/8 20/9/8 25/19/8
f 20/9/9 22/8/9 26/20/9
f 22/15/10 11/5/10 27/22/10
f 34/35/11 28/23/11 29/25/11
f 23/24/38 24/26/12 29/25/12
f 30/37/39 24/28/13 31/30/15
f 25/29/18 26/31/16 31/30/18
f 32/32/40 26/31/19 33/34/21
f 33/34/41 27/33/22 34/35/24
