# Blender v2.72 (sub 0) OBJ File: 'Showcase.blend'
# www.blender.org
mtllib model.mtl
o Showcase
v 1.088038 0.000000 -0.090000
v 1.088038 0.000000 -0.150000
v 1.140000 0.000000 -0.180000
v 1.191962 0.000000 -0.150000
v 1.191962 0.000000 -0.090000
v 1.140000 0.000000 -0.060000
v 1.088038 0.600000 -0.090000
v 1.088038 0.600000 -0.150000
v 1.140000 0.600000 -0.180000
v 1.191962 0.600000 -0.150000
v 1.191962 0.600000 -0.090000
v 1.140000 0.600000 -0.060000
v 1.140000 0.000000 -0.120000
v -1.191962 0.000000 -0.090000
v -1.191962 0.000000 -0.150000
v -1.140000 0.000000 -0.180000
v -1.088038 0.000000 -0.150000
v -1.088038 0.000000 -0.090000
v -1.140000 0.000000 -0.060000
v -1.191962 0.600000 -0.090000
v -1.191962 0.600000 -0.150000
v -1.140000 0.600000 -0.180000
v -1.088038 0.600000 -0.150000
v -1.088038 0.600000 -0.090000
v -1.140000 0.600000 -0.060000
v -1.140000 0.000000 -0.120000
v 1.088039 0.000000 0.450000
v 1.088038 0.000000 0.390000
v 1.140000 0.000000 0.360000
v 1.191962 0.000000 0.390000
v 1.191962 0.000000 0.450000
v 1.140000 0.000000 0.480000
v 1.088039 1.140000 0.450000
v 1.088038 1.140000 0.390000
v 1.140000 1.140000 0.360000
v 1.191962 1.140000 0.390000
v 1.191962 1.140000 0.450000
v 1.140000 1.140000 0.480000
v 1.140000 0.000000 0.420000
v -1.191962 0.000000 0.450000
v -1.191962 0.000000 0.390000
v -1.140000 0.000000 0.360000
v -1.088039 0.000000 0.390000
v -1.088039 0.000000 0.450000
v -1.140000 0.000000 0.480000
v -1.191962 1.140000 0.450000
v -1.191962 1.140000 0.390000
v -1.140000 1.140000 0.360000
v -1.088039 1.140000 0.390000
v -1.088039 1.140000 0.450000
v -1.140000 1.140000 0.480000
v -1.140000 0.000000 0.420000
v -1.200000 1.193970 0.554558
v -1.200000 0.345442 -0.293970
v 1.200000 0.345442 -0.293970
v 1.200000 1.193970 0.554559
v -1.200000 1.448528 0.300000
v -1.200000 0.600000 -0.548528
v 1.200000 0.600000 -0.548528
v 1.200000 1.448528 0.300000
v -1.080000 1.363675 0.215147
v -1.080000 0.684853 -0.463676
v 1.080000 0.684853 -0.463675
v 1.080000 1.363675 0.215147
v -1.080000 1.052548 -0.095980
v -1.080000 0.995980 -0.152549
v -0.340000 0.684853 -0.463676
v 0.340000 0.684853 -0.463675
v 1.080000 0.995980 -0.152548
v 1.080000 1.052548 -0.095980
v -0.340000 1.363675 0.215147
v 0.340000 1.363675 0.215147
v -0.440000 0.684853 -0.463676
v 0.000000 0.684853 -0.463675
v 0.440000 0.684853 -0.463675
v -0.440000 1.363675 0.215147
v -0.000000 1.363675 0.215147
v 0.440000 1.363675 0.215147
v 0.440000 0.995980 -0.152548
v 0.440000 1.052548 -0.095980
v 0.340000 0.995980 -0.152548
v 0.340000 1.052548 -0.095980
v -0.340000 0.995980 -0.152548
v -0.340000 1.052548 -0.095980
v -0.440000 0.995980 -0.152548
v -0.440000 1.052548 -0.095980
v 1.080000 0.515147 -0.293970
v 1.080000 0.826274 0.017157
v 0.440000 0.515147 -0.293970
v 0.440000 0.826274 0.017157
v 1.080000 1.193970 0.384853
v 1.080000 0.882843 0.073726
v 0.440000 1.193970 0.384853
v 0.440000 0.882843 0.073726
v -0.340000 0.515147 -0.293970
v 0.000000 0.515147 -0.293970
v 0.340000 0.515147 -0.293970
v 0.340000 0.826274 0.017157
v -0.340000 0.826274 0.017157
v -0.340000 1.193970 0.384853
v -0.000000 1.193970 0.384853
v 0.340000 1.193970 0.384853
v 0.340000 0.882843 0.073726
v -0.340000 0.882843 0.073726
v -1.080001 1.193970 0.384853
v -1.080000 0.882843 0.073726
v -0.440000 1.193970 0.384853
v -0.440000 0.882843 0.073726
v -1.080000 0.515147 -0.293970
v -1.080000 0.826274 0.017157
v -0.440000 0.515147 -0.293970
v -0.440000 0.826274 0.017157
vt 0.834332 0.406266
vt 0.853860 0.441421
vt 0.813651 0.440755
vt 0.794123 0.405599
vt 0.814805 0.371111
vt 0.855014 0.371777
vt 0.874541 0.406932
vt 0.853859 0.749326
vt 0.814102 0.749182
vt 0.772758 0.749111
vt 0.773442 0.440088
vt 0.732891 0.749378
vt 0.733233 0.439422
vt 0.693023 0.749140
vt 0.693024 0.438755
vt 0.934278 0.749358
vt 0.894069 0.749435
vt 0.894069 0.442088
vt 0.834332 0.091266
vt 0.853860 0.126421
vt 0.813651 0.125755
vt 0.794123 0.090599
vt 0.814805 0.056111
vt 0.855014 0.056777
vt 0.874541 0.091932
vt 0.773442 0.125088
vt 0.733233 0.124422
vt 0.693024 0.123755
vt 0.894069 0.127088
vt 0.964844 0.046875
vt 0.964844 0.953125
vt 0.054688 0.953125
vt 0.727098 0.804336
vt 0.727098 0.935556
vt 0.289698 0.935556
vt 0.958398 0.808064
vt 0.958398 0.943064
vt 0.058398 0.943064
vt 0.283398 0.804153
vt 0.733398 0.804153
vt 0.733398 0.939153
vt 0.058398 0.808064
vt 0.953462 0.463375
vt 1.003298 0.230803
vt 1.003299 0.729173
vt 0.953462 0.679336
vt 0.953462 0.496600
vt 0.953462 0.280640
vt 0.056395 0.496600
vt 0.006558 0.729173
vt 0.006558 0.230803
vt 0.056395 0.280640
vt 0.056395 0.463376
vt 0.056395 0.679336
vt 0.504928 0.280640
vt 0.646133 0.280640
vt 0.363723 0.280640
vt 0.687664 0.280640
vt 0.322192 0.280640
vt 0.504928 0.679336
vt 0.363723 0.679336
vt 0.646133 0.679336
vt 0.322192 0.679336
vt 0.687664 0.679336
vt 0.322192 0.463376
vt 0.322192 0.496600
vt 0.363723 0.463376
vt 0.363723 0.496600
vt 0.646133 0.463376
vt 0.646133 0.496600
vt 0.687664 0.496600
vt 0.687664 0.463376
vt 0.126170 0.182315
vt 0.126170 0.095043
vt 0.286170 0.095043
vt 0.631625 0.095481
vt 0.631625 0.185881
vt 0.375625 0.185881
vt 0.286170 0.182315
vt 0.375625 0.095481
vt 0.631625 0.185834
vt 0.503625 0.185834
vt 0.503625 0.095481
vt 0.375625 0.185834
vt 0.615344 0.448938
vt 0.399344 0.448938
vt 0.399344 0.308875
vt 0.615344 0.448640
vt 0.399344 0.448640
vt 0.615344 0.308875
vt 0.934278 0.442754
vt 0.934278 0.127754
vt 0.054688 0.046875
vt 0.289699 0.804336
vt 0.283398 0.939153
vn 0.000000 -1.000000 0.000000
vn -1.000000 -0.000000 0.000000
vn -0.500000 0.000000 -0.866000
vn 0.500000 -0.000000 -0.866000
vn 1.000000 0.000000 -0.000000
vn 0.500000 -0.000000 0.866000
vn -0.500000 0.000000 0.866000
vn 0.000000 -0.707100 0.707100
vn 0.000000 -0.707100 -0.707100
vn -0.000000 0.707100 0.707100
vn 0.000000 0.707100 -0.707100
usemtl Texture
s off
f 13/1/1 1/2/1 2/3/1
f 13/1/1 2/3/1 3/4/1
f 13/1/1 3/4/1 4/5/1
f 13/1/1 4/5/1 5/6/1
f 13/1/1 5/6/1 6/7/1
f 6/7/1 1/2/1 13/1/1
f 7/8/2 8/9/2 2/3/2
f 8/9/3 9/10/3 3/11/3
f 9/10/4 10/12/4 4/13/4
f 10/12/5 11/14/5 5/15/5
f 11/16/6 12/17/6 6/18/6
f 1/2/7 6/18/7 12/17/7
f 26/1/1 14/2/1 15/3/1
f 26/1/1 15/3/1 16/4/1
f 26/1/1 16/4/1 17/5/1
f 26/1/1 17/5/1 18/6/1
f 26/1/1 18/6/1 19/7/1
f 19/7/1 14/2/1 26/1/1
f 20/8/2 21/9/2 15/3/2
f 15/3/3 21/9/3 22/10/3
f 22/10/4 23/12/4 17/13/4
f 23/12/5 24/14/5 18/15/5
f 24/16/6 25/17/6 19/18/6
f 14/2/7 19/18/7 25/17/7
f 39/19/1 27/20/1 28/21/1
f 39/19/1 28/21/1 29/22/1
f 39/19/1 29/22/1 30/23/1
f 39/19/1 30/23/1 31/24/1
f 39/19/1 31/24/1 32/25/1
f 32/25/1 27/20/1 39/19/1
f 33/8/2 34/9/2 28/21/2
f 34/9/3 35/10/3 29/26/3
f 35/10/4 36/12/4 30/27/4
f 36/12/5 37/14/5 31/28/5
f 37/16/6 38/17/6 32/29/6
f 27/20/7 32/29/7 38/17/7
f 52/19/1 40/20/1 41/21/1
f 52/19/1 41/21/1 42/22/1
f 52/19/1 42/22/1 43/23/1
f 52/19/1 43/23/1 44/24/1
f 52/19/1 44/24/1 45/25/1
f 45/25/1 40/20/1 52/19/1
f 46/8/2 47/9/2 41/21/2
f 47/9/3 48/10/3 42/26/3
f 48/10/4 49/12/4 43/27/4
f 49/12/5 50/14/5 44/28/5
f 50/16/6 51/17/6 45/29/6
f 40/20/7 45/29/7 51/17/7
f 54/30/8 55/31/8 56/32/8
f 53/33/2 57/34/2 58/35/2
f 54/36/9 58/37/9 59/38/9
f 59/39/5 60/40/5 56/41/5
f 53/37/10 56/38/10 60/42/10
f 66/43/11 58/44/11 57/45/11
f 61/46/11 65/47/11 57/45/11
f 66/43/11 62/48/11 58/44/11
f 70/49/11 60/50/11 59/51/11
f 63/52/11 69/53/11 59/51/11
f 70/49/11 64/54/11 60/50/11
f 74/55/11 59/51/11 58/44/11
f 67/56/11 74/55/11 58/44/11
f 74/55/11 68/57/11 59/51/11
f 62/48/11 73/58/11 58/44/11
f 73/58/11 67/56/11 58/44/11
f 68/57/11 75/59/11 59/51/11
f 75/59/11 63/52/11 59/51/11
f 77/60/11 57/45/11 60/50/11
f 72/61/11 77/60/11 60/50/11
f 77/60/11 71/62/11 57/45/11
f 64/54/11 78/63/11 60/50/11
f 78/63/11 72/61/11 60/50/11
f 71/62/11 76/64/11 57/45/11
f 76/64/11 61/46/11 57/45/11
f 69/53/11 79/65/11 80/66/11
f 81/67/11 82/68/11 80/66/11
f 78/63/11 80/66/11 82/68/11
f 68/57/11 81/67/11 79/65/11
f 81/67/11 83/69/11 84/70/11
f 65/47/11 86/71/11 85/72/11
f 83/69/11 85/72/11 86/71/11
f 73/58/11 85/72/11 83/69/11
f 84/70/11 86/71/11 76/64/11
f 63/73/2 87/74/2 88/75/2
f 75/76/10 89/77/10 87/78/10
f 75/74/5 79/75/5 90/79/5
f 79/77/9 69/78/9 88/80/9
f 70/73/2 92/74/2 91/75/2
f 78/77/9 64/78/9 91/80/9
f 78/75/5 93/79/5 94/73/5
f 80/76/10 94/77/10 92/78/10
f 67/76/10 95/81/10 96/82/10
f 74/83/10 96/82/10 97/84/10
f 81/79/2 68/73/2 97/74/2
f 83/75/5 99/79/5 95/73/5
f 81/84/9 98/80/9 99/76/9
f 77/82/9 101/83/9 100/76/9
f 77/82/9 72/84/9 102/80/9
f 82/73/2 103/74/2 102/75/2
f 71/75/5 100/79/5 104/73/5
f 84/76/10 104/81/10 103/84/10
f 61/75/5 105/79/5 106/73/5
f 76/78/9 107/80/9 105/76/9
f 76/79/2 86/73/2 108/74/2
f 65/76/10 106/77/10 108/78/10
f 62/74/5 66/75/5 110/79/5
f 62/76/10 109/77/10 111/78/10
f 73/73/2 111/74/2 112/75/2
f 85/78/9 112/80/9 110/76/9
f 110/85/11 112/86/11 111/87/11
f 105/85/11 107/86/11 108/87/11
f 100/88/11 102/89/11 103/87/11
f 99/88/11 98/89/11 97/87/11
f 92/87/11 94/90/11 93/85/11
f 89/90/11 90/85/11 88/86/11
f 1/2/2 7/8/2 2/3/2
f 2/3/3 8/9/3 3/11/3
f 3/11/4 9/10/4 4/13/4
f 4/13/5 10/12/5 5/15/5
f 5/91/6 11/16/6 6/18/6
f 7/8/7 1/2/7 12/17/7
f 14/2/2 20/8/2 15/3/2
f 16/11/3 15/3/3 22/10/3
f 16/11/4 22/10/4 17/13/4
f 17/13/5 23/12/5 18/15/5
f 18/91/6 24/16/6 19/18/6
f 20/8/7 14/2/7 25/17/7
f 27/20/2 33/8/2 28/21/2
f 28/21/3 34/9/3 29/26/3
f 29/26/4 35/10/4 30/27/4
f 30/27/5 36/12/5 31/28/5
f 31/92/6 37/16/6 32/29/6
f 33/8/7 27/20/7 38/17/7
f 40/20/2 46/8/2 41/21/2
f 41/21/3 47/9/3 42/26/3
f 42/26/4 48/10/4 43/27/4
f 43/27/5 49/12/5 44/28/5
f 44/92/6 50/16/6 45/29/6
f 46/8/7 40/20/7 51/17/7
f 53/93/8 54/30/8 56/32/8
f 54/94/2 53/33/2 58/35/2
f 55/42/9 54/36/9 59/38/9
f 55/95/5 59/39/5 56/41/5
f 57/36/10 53/37/10 60/42/10
f 65/47/11 66/43/11 57/45/11
f 69/53/11 70/49/11 59/51/11
f 70/49/11 69/53/11 80/66/11
f 79/65/11 81/67/11 80/66/11
f 72/61/11 78/63/11 82/68/11
f 75/59/11 68/57/11 79/65/11
f 82/68/11 81/67/11 84/70/11
f 66/43/11 65/47/11 85/72/11
f 84/70/11 83/69/11 86/71/11
f 67/56/11 73/58/11 83/69/11
f 71/62/11 84/70/11 76/64/11
f 69/79/2 63/73/2 88/75/2
f 63/80/10 75/76/10 87/78/10
f 89/73/5 75/74/5 90/79/5
f 90/76/9 79/77/9 88/80/9
f 64/79/2 70/73/2 91/75/2
f 93/76/9 78/77/9 91/80/9
f 80/74/5 78/75/5 94/73/5
f 70/80/10 80/76/10 92/78/10
f 74/83/10 67/76/10 96/82/10
f 68/80/10 74/83/10 97/84/10
f 98/75/2 81/79/2 97/74/2
f 67/74/5 83/75/5 95/73/5
f 83/81/9 81/84/9 99/76/9
f 71/81/9 77/82/9 100/76/9
f 101/83/9 77/82/9 102/80/9
f 72/79/2 82/73/2 102/75/2
f 84/74/5 71/75/5 104/73/5
f 82/80/10 84/76/10 103/84/10
f 65/74/5 61/75/5 106/73/5
f 61/77/9 76/78/9 105/76/9
f 107/75/2 76/79/2 108/74/2
f 86/80/10 65/76/10 108/78/10
f 109/73/5 62/74/5 110/79/5
f 73/80/10 62/76/10 111/78/10
f 85/79/2 73/73/2 112/75/2
f 66/77/9 85/78/9 110/76/9
f 109/90/11 110/85/11 111/87/11
f 106/90/11 105/85/11 108/87/11
f 104/90/11 100/88/11 103/87/11
f 95/90/11 99/88/11 97/87/11
f 91/86/11 92/87/11 93/85/11
f 87/87/11 89/90/11 88/86/11
