# Blender v2.72 (sub 0) OBJ File: 'Sarcofagus.blend'
# www.blender.org
mtllib model.mtl
o Sarcofagus
v -0.897055 0.795192 -0.339059
v 0.897055 0.795192 -0.339059
v -1.017832 0.481116 0.076153
v -1.017832 0.559922 0.076153
v -1.017832 0.559922 -0.081459
v -1.017832 0.481116 -0.081459
v -1.017832 0.599325 0.036750
v -1.017832 0.599325 -0.042056
v -1.017832 0.441713 0.028869
v -1.017832 0.441713 -0.034176
v -1.017832 0.402418 -0.034176
v -1.017832 0.402418 0.028869
v -1.017832 0.370268 -0.034176
v -1.017832 0.370268 0.028869
v -1.017832 0.420994 0.028869
v -1.017832 0.420994 -0.034176
v -0.969986 0.420994 -0.034176
v -0.969986 0.420994 0.028869
v -0.969986 0.370268 0.028869
v -0.969986 0.370268 -0.034176
v -0.969986 0.402418 0.028869
v -0.969986 0.402418 -0.034176
v -0.969986 0.441713 -0.034176
v -0.969986 0.441713 0.028869
v -0.969986 0.599325 -0.042056
v -0.969986 0.599325 0.036750
v -0.969986 0.481116 -0.081459
v -0.969986 0.559922 -0.081459
v -0.969986 0.559922 0.076153
v -0.969986 0.481116 0.076153
v 1.017664 0.481116 -0.081459
v 1.017664 0.559922 -0.081459
v 1.017664 0.559922 0.076153
v 1.017664 0.481116 0.076153
v 1.017664 0.599325 -0.042056
v 1.017664 0.599325 0.036750
v 1.017664 0.441713 -0.034175
v 1.017664 0.441713 0.028869
v 1.017664 0.402418 0.028869
v 1.017664 0.402418 -0.034175
v 1.017664 0.370268 0.028869
v 1.017664 0.370268 -0.034175
v 1.017664 0.420994 -0.034175
v 1.017664 0.420994 0.028869
v 0.969817 0.420994 0.028869
v 0.969817 0.420994 -0.034175
v 0.969817 0.370268 -0.034175
v 0.969817 0.370268 0.028869
v 0.969817 0.402418 -0.034175
v 0.969817 0.402418 0.028869
v 0.969817 0.441713 0.028869
v 0.969817 0.441713 -0.034175
v 0.969817 0.599325 0.036750
v 0.969817 0.599325 -0.042056
v 0.969817 0.481116 0.076153
v 0.969817 0.559922 0.076153
v 0.969817 0.559922 -0.081459
v 0.969817 0.481116 -0.081459
v 0.131827 0.451679 0.477742
v 0.131827 0.583506 0.477742
v -0.131827 0.583506 0.477742
v -0.131827 0.451679 0.477742
v 0.063170 0.644447 0.477335
v -0.063170 0.644447 0.477335
v 0.050536 0.391766 0.477335
v -0.050536 0.391766 0.477335
v -0.050536 0.328769 0.477335
v 0.050536 0.328769 0.477335
v -0.050536 0.277226 0.477335
v 0.050536 0.277226 0.477335
v 0.050536 0.358549 0.477335
v -0.050536 0.358549 0.477335
v -0.050536 0.358549 0.400628
v 0.050536 0.358549 0.400628
v 0.050536 0.277226 0.400628
v -0.050536 0.277226 0.400628
v 0.050536 0.328769 0.400628
v -0.050536 0.328769 0.400628
v -0.050536 0.391766 0.400628
v 0.050536 0.391766 0.400628
v -0.063170 0.644447 0.400628
v 0.063170 0.644447 0.400628
v -0.126340 0.454936 0.400628
v -0.126340 0.581277 0.400628
v 0.126340 0.581277 0.400628
v 0.126340 0.454936 0.400628
v -0.125354 0.454333 -0.480633
v -0.125354 0.579688 -0.480633
v 0.125354 0.579688 -0.480633
v 0.125354 0.454333 -0.480633
v -0.062677 0.642365 -0.480633
v 0.062677 0.642365 -0.480633
v -0.050142 0.391656 -0.480633
v 0.050142 0.391656 -0.480633
v 0.050142 0.329151 -0.480633
v -0.050142 0.329151 -0.480633
v 0.050142 0.278010 -0.480633
v -0.050142 0.278010 -0.480634
v -0.050142 0.358699 -0.480633
v 0.050142 0.358699 -0.480633
v 0.050142 0.358699 -0.404525
v -0.050142 0.358699 -0.404525
v -0.050142 0.278010 -0.404525
v 0.050142 0.278010 -0.404525
v -0.050142 0.329151 -0.404525
v 0.050142 0.329151 -0.404525
v 0.050142 0.391656 -0.404525
v -0.050142 0.391656 -0.404525
v 0.062677 0.642365 -0.404525
v -0.062677 0.642365 -0.404525
v 0.125354 0.454333 -0.404525
v 0.125354 0.579688 -0.404525
v -0.125354 0.579688 -0.404525
v -0.125354 0.454333 -0.404525
v -1.113523 0.002704 0.550221
v -1.113523 0.002704 -0.555528
v 1.113523 0.002704 -0.555528
v 1.113523 0.002704 0.550222
v 1.113523 0.073024 0.550222
v 1.113523 0.073024 -0.555528
v -1.113523 0.073024 -0.555528
v -1.113523 0.073024 0.550221
v -1.072011 0.116758 0.508709
v -1.072011 0.116758 -0.514015
v 1.072011 0.116758 -0.514015
v 1.072011 0.116758 0.508709
v 0.981157 0.797922 0.417855
v 0.981157 0.797922 -0.423161
v -0.981157 0.797922 -0.423161
v -0.981157 0.797922 0.417855
v -1.007115 0.169651 -0.504930
v 1.007115 0.169651 -0.504930
v 0.934432 0.745029 -0.432246
v -0.934432 0.745029 -0.432246
v -0.960875 0.198234 -0.462038
v 0.960875 0.198234 -0.462038
v 0.901139 0.698237 -0.402302
v -0.901139 0.698237 -0.402302
v -0.901139 0.698237 0.396972
v 0.901139 0.698237 0.396972
v 0.960875 0.198234 0.456708
v -0.960875 0.198234 0.456708
v -0.934432 0.745029 0.426917
v 0.934432 0.745029 0.426917
v 1.007115 0.169651 0.499600
v -1.007115 0.169651 0.499600
v -1.062933 0.169651 -0.449341
v -1.062933 0.169651 0.443591
v -0.990249 0.745029 0.370908
v -0.990249 0.745029 -0.376658
v -1.020041 0.198234 -0.403102
v -1.020041 0.198234 0.397352
v -0.960305 0.698237 0.337615
v -0.960305 0.698237 -0.343365
v 0.960284 0.698237 -0.343365
v 0.960284 0.698237 0.337615
v 1.020020 0.198234 0.397352
v 1.020020 0.198234 -0.403102
v 0.990229 0.745029 -0.376658
v 0.990229 0.745029 0.370908
v 1.062912 0.169651 0.443591
v 1.062912 0.169651 -0.449341
v -0.879574 0.909537 0.735539
v -1.023391 0.909537 -0.080041
v 0.879574 0.909537 -0.415604
v 1.023391 0.909537 0.399976
v 1.039274 0.797407 0.403701
v 0.893225 0.797407 -0.424537
v -1.039274 0.797407 -0.083765
v -0.893224 0.797407 0.744472
v -0.897055 0.122413 -0.339059
v -0.897055 0.122413 0.333753
v 0.897055 0.122413 0.333753
v -0.897055 0.795192 0.333753
v 0.897055 0.122413 -0.339059
v 0.897055 0.795192 0.333753
vt 0.827466 0.684916
vt 0.827466 0.989338
vt 0.015699 0.989339
vt 0.929832 0.989381
vt 0.100893 0.989381
vt 0.100893 0.678535
vt 0.514809 0.684916
vt 0.514809 0.989338
vt 0.827467 0.685559
vt 0.015699 0.684916
vt 0.332796 0.989339
vt 0.070418 0.545268
vt 0.227115 0.545269
vt 0.227116 0.466920
vt 0.109593 0.584443
vt 0.187941 0.584443
vt 0.070418 0.466920
vt 0.180107 0.427746
vt 0.387335 0.513568
vt 0.449520 0.513568
vt 0.449520 0.481856
vt 0.180107 0.407147
vt 0.117428 0.407147
vt 0.117428 0.427746
vt 0.227676 0.427746
vt 0.227676 0.407147
vt 0.180107 0.359578
vt 0.117428 0.359578
vt 0.069859 0.407147
vt 0.069858 0.427746
vt 0.340141 0.481856
vt 0.340141 0.513568
vt 0.387335 0.560762
vt 0.449520 0.560762
vt 0.496714 0.513568
vt 0.496714 0.481856
vt 0.449520 0.434662
vt 0.387335 0.434662
vt 0.387335 0.481856
vt 0.272869 0.460977
vt 0.257359 0.438002
vt 0.057275 0.440702
vt 0.036782 0.578905
vt 0.075956 0.618079
vt 0.109592 0.632012
vt 0.187941 0.632012
vt 0.221577 0.618079
vt 0.260752 0.578905
vt 0.274684 0.545269
vt 0.274684 0.466920
vt 0.022850 0.466920
vt 0.022849 0.545268
vt 0.022866 0.460076
vt 0.108719 0.286077
vt 0.108719 0.076351
vt 0.531119 0.076351
vt 0.991508 0.030446
vt 0.674766 0.030446
vt 0.674766 0.010303
vt 0.009722 0.029710
vt 0.647661 0.029710
vt 0.647661 0.009567
vt 0.991781 0.030446
vt 0.675039 0.030446
vt 0.675039 0.010303
vt 0.009722 0.009567
vt 0.635770 0.042238
vt 0.021613 0.042238
vt 0.979890 0.042974
vt 0.686930 0.042974
vt 0.979617 0.042974
vt 0.686657 0.042974
vt 0.617180 0.057389
vt 0.040203 0.057389
vt 0.061023 0.317783
vt 0.596360 0.317783
vt 0.609745 0.332934
vt 0.603935 0.065576
vt 0.053448 0.065576
vt 0.070560 0.304380
vt 0.586824 0.304380
vt 0.961237 0.058125
vt 0.947991 0.066313
vt 0.718701 0.066313
vt 0.726276 0.318520
vt 0.735813 0.305116
vt 0.930880 0.305116
vt 0.940417 0.318520
vt 0.705456 0.058125
vt 0.947846 0.066313
vt 0.930734 0.305116
vt 0.735667 0.305116
vt 0.940271 0.318520
vt 0.726130 0.318520
vt 0.705310 0.058125
vt 0.718556 0.066313
vt 0.953865 0.333671
vt 0.047639 0.332934
vt 0.961091 0.058125
vt 0.953592 0.333671
vt 0.712682 0.333671
vt 0.041827 0.960742
vt 0.008107 0.994462
vt 0.008107 0.657265
vt 0.041827 0.690984
vt 0.794878 0.657265
vt 0.794878 0.994462
vt 0.761158 0.960742
vt 0.962180 0.922446
vt 0.425070 0.922446
vt 0.425070 0.692250
vt 0.962220 0.759062
vt 0.962180 0.692250
vt 0.993625 0.691964
vt 0.993625 0.922733
vt 0.961883 0.992730
vt 0.424539 0.993713
vt 0.393625 0.691964
vt 0.943436 0.897038
vt 0.409393 0.897038
vt 0.409393 0.668155
vt 0.929832 0.678535
vt 0.015699 0.685559
vt 0.332796 0.684916
vt 0.531119 0.286077
vt 0.991508 0.010303
vt 0.991781 0.010303
vt 0.712955 0.333671
vt 0.761158 0.690984
vt 0.425856 0.760060
vt 0.393625 0.922733
vt 0.943436 0.668155
vn -0.000000 1.000000 0.000000
vn 0.000000 -0.000000 1.000000
vn 1.000000 0.000000 0.000000
vn 0.000000 0.000000 -1.000000
vn -1.000000 0.000000 -0.000000
vn 0.000000 -1.000000 0.000000
vn 0.000000 -0.768200 -0.640200
vn 0.000000 -0.768200 0.640200
vn 0.000000 0.707100 0.707100
vn -0.000000 0.707100 -0.707100
vn -0.000000 0.006700 1.000000
vn 0.000000 -0.006800 1.000000
vn -0.638200 -0.765900 -0.077800
vn 0.638200 -0.765900 -0.077800
vn 0.705300 0.705300 -0.070600
vn -0.705300 0.705300 -0.070600
vn -0.997500 -0.000000 -0.071000
vn 0.997500 -0.000000 -0.071000
vn 0.640200 -0.768200 0.000000
vn -0.640200 -0.768200 0.000000
vn -0.707100 0.707100 -0.000000
vn 0.707100 0.707100 0.000000
vn 0.000000 0.688400 -0.725300
vn -0.725300 0.688400 0.000000
vn -0.000000 0.688400 0.725300
vn 0.725300 0.688400 0.000000
vn 0.000000 0.169300 -0.985600
vn -0.041000 0.120100 -0.991900
vn 0.041000 0.120100 -0.991900
vn 0.000000 0.832200 -0.554500
vn 0.000000 -0.539000 -0.842300
vn -0.677600 0.007300 -0.735400
vn 0.674600 0.007600 -0.738200
vn 0.000000 0.118600 -0.992900
vn 0.000000 0.118600 0.992900
vn 0.677600 0.007300 0.735400
vn -0.674600 0.007600 0.738200
vn 0.000000 -0.539000 0.842300
vn 0.000000 0.832200 0.554500
vn -0.554500 0.832200 0.000000
vn -0.842300 -0.539000 0.000000
vn -0.738200 0.007600 -0.674600
vn -0.735400 0.007300 0.677600
vn -0.992900 0.118600 0.000000
vn 0.992900 0.118600 0.000000
vn 0.738200 0.007600 0.674600
vn 0.735400 0.007300 -0.677600
vn 0.842300 -0.539000 0.000000
vn 0.554500 0.832200 0.000000
vn -0.985600 0.169200 0.000000
vn -0.991900 0.120100 0.041000
vn -0.989900 0.137000 0.037400
vn 0.041400 0.120100 0.991900
vn 0.000000 0.169700 0.985500
vn 0.036900 0.137000 0.989900
vn 0.000000 0.168900 0.985600
vn 0.991900 0.120100 -0.041000
vn 0.985500 0.169500 0.000000
vn 0.989900 0.137000 -0.037300
vn 0.985600 0.169000 0.000000
vn -0.985500 0.169400 0.000000
vn -0.032400 0.999500 0.000000
vn -0.000000 0.999500 0.032400
vn 0.000000 0.999500 -0.032400
vn 0.032400 0.999500 0.000000
vn -0.173400 0.057200 -0.983200
vn -0.976100 0.132500 0.172100
vn 0.173400 0.057200 0.983200
vn 0.976100 0.132500 -0.172100
vn -0.593300 -0.805000 -0.000000
vn 0.593300 -0.805000 -0.000000
vn 0.663800 0.747900 0.000000
vn -0.663800 0.747900 0.000000
vn 0.037400 0.137000 -0.989900
vn -0.037400 0.137000 -0.989900
vn -0.674600 0.007600 -0.738200
vn 0.677600 0.007300 -0.735400
vn 0.674600 0.007600 0.738200
vn -0.677600 0.007300 0.735400
vn -0.735400 0.007300 -0.677600
vn -0.738200 0.007600 0.674600
vn 0.735400 0.007300 0.677600
vn 0.738200 0.007600 -0.674600
vn -0.989800 0.137000 -0.037700
vn -0.991900 0.120200 -0.040700
vn -0.036900 0.137000 0.989900
vn -0.041400 0.120100 0.991900
vn 0.989900 0.137000 0.037000
vn 0.991900 0.120100 0.041300
usemtl Texture
s off
f 171/1/1 172/2/1 173/3/1
f 171/4/2 175/5/2 2/6/2
f 1/7/3 174/8/3 172/2/3
f 173/3/4 172/2/4 174/9/4
f 175/10/5 173/3/5 176/11/5
f 4/12/5 5/13/5 6/14/5
f 7/15/5 8/16/5 5/13/5
f 3/17/5 6/14/5 10/18/5
f 13/19/5 14/20/5 12/21/5
f 16/22/5 15/23/5 9/24/5
f 23/25/4 17/26/4 16/22/4
f 16/22/6 17/27/6 18/28/6
f 18/29/2 24/30/2 9/24/2
f 22/31/4 20/32/4 13/19/4
f 13/19/6 20/33/6 19/34/6
f 19/35/2 21/36/2 12/21/2
f 21/37/1 22/38/1 11/39/1
f 6/14/7 27/40/7 23/41/7
f 3/17/8 9/24/8 24/42/8
f 29/43/9 26/44/9 7/15/9
f 26/45/1 25/46/1 8/16/1
f 25/47/10 28/48/10 5/13/10
f 28/49/4 27/50/4 6/14/4
f 30/51/2 29/52/2 4/12/2
f 31/17/3 32/12/3 33/13/3
f 35/15/3 36/16/3 33/13/3
f 34/14/3 38/18/3 37/24/3
f 39/39/3 41/19/3 42/20/3
f 44/22/3 43/23/3 37/24/3
f 51/25/2 45/26/2 44/22/2
f 45/27/6 46/28/6 43/23/6
f 46/29/4 52/30/4 37/24/4
f 50/31/2 48/32/2 41/19/2
f 41/19/6 48/33/6 47/34/6
f 42/20/4 47/35/4 49/36/4
f 49/37/1 50/38/1 39/39/1
f 55/40/8 51/41/8 38/18/8
f 52/42/7 58/53/7 31/17/7
f 32/12/10 57/43/10 54/44/10
f 35/15/1 54/45/1 53/46/1
f 53/47/9 56/48/9 33/13/9
f 56/49/2 55/50/2 34/14/2
f 58/51/4 57/52/4 32/12/4
f 60/12/2 61/13/2 62/14/2
f 60/12/11 63/15/11 64/16/11
f 62/14/12 66/18/12 65/24/12
f 69/19/2 70/20/2 68/21/2
f 72/22/2 71/23/2 65/24/2
f 66/18/5 79/25/5 73/26/5
f 73/27/6 74/28/6 71/23/6
f 71/23/3 74/29/3 80/30/3
f 78/31/5 76/32/5 69/19/5
f 76/33/6 75/34/6 70/20/6
f 70/20/3 75/35/3 77/36/3
f 77/37/1 78/38/1 67/39/1
f 62/14/13 83/40/13 79/41/13
f 80/42/14 86/53/14 59/17/14
f 60/12/15 85/43/15 82/44/15
f 82/45/1 81/46/1 64/16/1
f 81/47/16 84/48/16 61/13/16
f 84/49/17 83/50/17 62/14/17
f 59/17/18 86/51/18 85/52/18
f 88/12/4 89/13/4 90/14/4
f 91/15/4 92/16/4 89/13/4
f 94/18/4 93/24/4 87/17/4
f 97/19/4 98/20/4 96/21/4
f 100/22/4 99/23/4 93/24/4
f 107/25/3 101/26/3 100/22/3
f 101/27/6 102/28/6 99/23/6
f 99/23/5 102/29/5 108/30/5
f 106/31/3 104/32/3 97/19/3
f 104/33/6 103/34/6 98/20/6
f 103/35/5 105/36/5 96/21/5
f 96/21/1 105/37/1 106/38/1
f 111/40/19 107/41/19 94/18/19
f 108/42/20 114/53/20 87/17/20
f 113/43/21 110/44/21 91/15/21
f 110/45/1 109/46/1 92/16/1
f 109/47/22 112/48/22 89/13/22
f 89/13/3 112/49/3 111/50/3
f 114/51/5 113/52/5 88/12/5
f 115/54/6 116/55/6 117/56/6
f 120/57/3 119/58/3 118/59/3
f 119/60/2 122/61/2 115/62/2
f 122/63/5 121/64/5 116/65/5
f 121/61/4 120/60/4 117/66/4
f 124/67/23 125/68/23 120/60/23
f 123/69/24 124/70/24 121/64/24
f 126/68/25 123/67/25 122/61/25
f 125/71/26 126/72/26 119/58/26
f 124/67/27 131/73/27 132/74/27
f 133/75/27 134/76/27 129/77/27
f 125/68/28 132/74/28 133/75/28
f 134/76/29 131/73/29 124/67/29
f 135/78/30 136/79/30 132/74/30
f 137/80/31 138/81/31 134/76/31
f 133/75/32 132/74/32 136/79/32
f 134/76/33 138/81/33 135/78/33
f 138/81/34 137/80/34 136/79/34
f 141/79/35 140/80/35 139/81/35
f 143/76/36 146/73/36 142/78/36
f 144/75/37 140/80/37 141/79/37
f 143/76/38 139/81/38 140/80/38
f 146/73/39 145/74/39 141/79/39
f 148/82/40 152/83/40 151/84/40
f 150/85/41 154/86/41 153/87/41
f 149/88/42 153/87/42 152/83/42
f 150/85/43 147/89/43 151/84/43
f 152/83/44 153/87/44 154/86/44
f 158/90/45 155/91/45 156/92/45
f 159/93/46 155/91/46 158/90/46
f 160/94/47 161/95/47 157/96/47
f 156/92/48 155/91/48 159/93/48
f 158/90/49 157/96/49 161/95/49
f 123/69/50 148/82/50 147/89/50
f 124/70/51 147/89/51 150/85/51
f 123/69/52 130/97/52 149/88/52
f 123/67/53 146/73/53 143/76/53
f 126/68/54 145/74/54 146/73/54
f 126/68/55 127/98/55 144/75/55
f 130/77/56 143/76/56 144/75/56
f 126/72/57 161/95/57 160/94/57
f 162/99/58 161/95/58 126/72/58
f 125/71/59 128/100/59 159/93/59
f 127/101/60 160/94/60 159/93/60
f 150/85/61 149/88/61 130/97/61
f 176/102/62 127/103/62 128/104/62
f 2/105/63 128/104/63 129/106/63
f 130/107/64 127/103/64 176/102/64
f 129/106/65 130/107/65 174/108/65
f 163/109/1 166/110/1 165/111/1
f 169/112/66 164/113/66 165/111/66
f 164/113/67 169/114/67 170/115/67
f 163/109/68 170/116/68 167/117/68
f 168/118/69 165/111/69 166/110/69
f 169/119/6 168/120/6 167/121/6
f 175/10/1 171/1/1 173/3/1
f 1/122/2 171/4/2 2/6/2
f 171/1/3 1/7/3 172/2/3
f 176/123/4 173/3/4 174/9/4
f 2/124/5 175/10/5 176/11/5
f 3/17/5 4/12/5 6/14/5
f 4/12/5 7/15/5 5/13/5
f 9/24/5 3/17/5 10/18/5
f 11/39/5 13/19/5 12/21/5
f 10/18/5 16/22/5 9/24/5
f 10/18/4 23/25/4 16/22/4
f 15/23/6 16/22/6 18/28/6
f 15/23/2 18/29/2 9/24/2
f 11/39/4 22/31/4 13/19/4
f 14/20/6 13/19/6 19/34/6
f 14/20/2 19/35/2 12/21/2
f 12/21/1 21/37/1 11/39/1
f 10/18/7 6/14/7 23/41/7
f 30/53/8 3/17/8 24/42/8
f 4/12/9 29/43/9 7/15/9
f 7/15/1 26/45/1 8/16/1
f 8/16/10 25/47/10 5/13/10
f 5/13/4 28/49/4 6/14/4
f 3/17/2 30/51/2 4/12/2
f 34/14/3 31/17/3 33/13/3
f 32/12/3 35/15/3 33/13/3
f 31/17/3 34/14/3 37/24/3
f 40/21/3 39/39/3 42/20/3
f 38/18/3 44/22/3 37/24/3
f 38/18/2 51/25/2 44/22/2
f 44/22/6 45/27/6 43/23/6
f 43/23/4 46/29/4 37/24/4
f 39/39/2 50/31/2 41/19/2
f 42/20/6 41/19/6 47/34/6
f 40/21/4 42/20/4 49/36/4
f 40/21/1 49/37/1 39/39/1
f 34/14/8 55/40/8 38/18/8
f 37/24/7 52/42/7 31/17/7
f 35/15/10 32/12/10 54/44/10
f 36/16/1 35/15/1 53/46/1
f 36/16/9 53/47/9 33/13/9
f 33/13/2 56/49/2 34/14/2
f 31/17/4 58/51/4 32/12/4
f 59/17/2 60/12/2 62/14/2
f 61/13/11 60/12/11 64/16/11
f 59/17/12 62/14/12 65/24/12
f 67/39/2 69/19/2 68/21/2
f 66/18/2 72/22/2 65/24/2
f 72/22/5 66/18/5 73/26/5
f 72/22/6 73/27/6 71/23/6
f 65/24/3 71/23/3 80/30/3
f 67/39/5 78/31/5 69/19/5
f 69/19/6 76/33/6 70/20/6
f 68/21/3 70/20/3 77/36/3
f 68/21/1 77/37/1 67/39/1
f 66/18/70 62/14/70 79/41/70
f 65/24/71 80/42/71 59/17/71
f 63/15/72 60/12/72 82/44/72
f 63/15/1 82/45/1 64/16/1
f 64/16/73 81/47/73 61/13/73
f 61/13/17 84/49/17 62/14/17
f 60/12/18 59/17/18 85/52/18
f 87/17/4 88/12/4 90/14/4
f 88/12/4 91/15/4 89/13/4
f 90/14/4 94/18/4 87/17/4
f 95/39/4 97/19/4 96/21/4
f 94/18/4 100/22/4 93/24/4
f 94/18/3 107/25/3 100/22/3
f 100/22/6 101/27/6 99/23/6
f 93/24/5 99/23/5 108/30/5
f 95/39/3 106/31/3 97/19/3
f 97/19/6 104/33/6 98/20/6
f 98/20/5 103/35/5 96/21/5
f 95/39/1 96/21/1 106/38/1
f 90/14/19 111/40/19 94/18/19
f 93/24/20 108/42/20 87/17/20
f 88/12/21 113/43/21 91/15/21
f 91/15/1 110/45/1 92/16/1
f 92/16/22 109/47/22 89/13/22
f 90/14/3 89/13/3 111/50/3
f 87/17/5 114/51/5 88/12/5
f 118/125/6 115/54/6 117/56/6
f 117/126/3 120/57/3 118/59/3
f 118/66/2 119/60/2 115/62/2
f 115/127/5 122/63/5 116/65/5
f 116/62/4 121/61/4 117/66/4
f 121/61/23 124/67/23 120/60/23
f 122/63/24 123/69/24 121/64/24
f 119/60/25 126/68/25 122/61/25
f 120/57/26 125/71/26 119/58/26
f 125/68/27 124/67/27 132/74/27
f 128/98/27 133/75/27 129/77/27
f 128/98/74 125/68/74 133/75/74
f 129/77/75 134/76/75 124/67/75
f 131/73/30 135/78/30 132/74/30
f 133/75/31 137/80/31 134/76/31
f 137/80/76 133/75/76 136/79/76
f 131/73/77 134/76/77 135/78/77
f 135/78/34 138/81/34 136/79/34
f 142/78/35 141/79/35 139/81/35
f 139/81/78 143/76/78 142/78/78
f 145/74/79 144/75/79 141/79/79
f 144/75/38 143/76/38 140/80/38
f 142/78/39 146/73/39 141/79/39
f 147/89/40 148/82/40 151/84/40
f 149/88/41 150/85/41 153/87/41
f 148/82/80 149/88/80 152/83/80
f 154/86/81 150/85/81 151/84/81
f 151/84/44 152/83/44 154/86/44
f 157/96/45 158/90/45 156/92/45
f 162/99/82 159/93/82 158/90/82
f 156/92/83 160/94/83 157/96/83
f 160/94/48 156/92/48 159/93/48
f 162/99/49 158/90/49 161/95/49
f 124/70/50 123/69/50 147/89/50
f 129/128/84 124/70/84 150/85/84
f 148/82/85 123/69/85 149/88/85
f 130/77/86 123/67/86 143/76/86
f 123/67/54 126/68/54 146/73/54
f 145/74/87 126/68/87 144/75/87
f 127/98/56 130/77/56 144/75/56
f 127/101/88 126/72/88 160/94/88
f 125/71/58 162/99/58 126/72/58
f 162/99/89 125/71/89 159/93/89
f 128/100/60 127/101/60 159/93/60
f 129/128/61 150/85/61 130/97/61
f 2/105/62 176/102/62 128/104/62
f 1/129/63 2/105/63 129/106/63
f 174/108/64 130/107/64 176/102/64
f 1/129/65 129/106/65 174/108/65
f 164/113/1 163/109/1 165/111/1
f 168/130/66 169/112/66 165/111/66
f 163/109/67 164/113/67 170/115/67
f 166/110/68 163/109/68 167/117/68
f 167/131/69 168/118/69 166/110/69
f 170/132/6 169/119/6 167/121/6
l 130 153
