# Blender v2.72 (sub 0) OBJ File: 'fountain.blend'
# www.blender.org
mtllib model.mtl
o Fountain
v -0.300000 0.000000 0.300000
v -0.300000 0.000000 -0.300000
v 0.300000 0.000000 -0.300000
v 0.300000 0.000000 0.300000
v -0.300000 0.120000 0.300000
v -0.300000 0.120000 -0.300000
v 0.300000 0.120000 -0.300000
v 0.300000 0.120000 0.300000
v 0.240000 0.120000 0.240000
v 0.240000 0.120000 -0.240000
v -0.240000 0.120000 -0.240000
v -0.240000 0.120000 0.240000
v -0.240000 0.195000 0.240000
v -0.240000 0.195000 -0.240000
v 0.240000 0.195000 -0.240000
v 0.240000 0.195000 0.240000
v 0.192000 0.195000 0.192000
v 0.192000 0.195000 -0.192000
v -0.192000 0.195000 -0.192000
v -0.192000 0.195000 0.192000
v -0.192000 0.255000 0.192000
v -0.192000 0.255000 -0.192000
v 0.192000 0.255000 -0.192000
v 0.192000 0.255000 0.192000
v 0.131328 0.255000 0.131328
v 0.131328 0.255000 -0.131328
v -0.131328 0.255000 -0.131328
v -0.131328 0.255000 0.131328
v -0.131328 0.900000 0.131328
v -0.131328 0.900000 -0.131328
v 0.131328 0.900000 -0.131328
v 0.131328 0.900000 0.131328
v -0.212132 0.900000 0.212132
v -0.300000 0.900000 -0.000000
v -0.212132 0.900000 -0.212132
v 0.000000 0.900000 -0.300000
v 0.212132 0.900000 -0.212132
v 0.300000 0.900000 -0.000000
v 0.212132 0.900000 0.212132
v 0.000000 0.900000 0.300000
v -0.424264 1.200000 0.424264
v -0.600000 1.200000 0.000000
v -0.424264 1.200000 -0.424264
v 0.000000 1.200000 -0.600000
v 0.424264 1.200000 -0.424264
v 0.600000 1.200000 0.000000
v 0.424264 1.200000 0.424264
v -0.000001 1.200000 0.600000
v 0.000000 0.900000 -0.000000
v -0.000001 1.200000 0.480000
v 0.339411 1.200000 0.339411
v 0.480000 1.200000 0.000000
v 0.339411 1.200000 -0.339411
v 0.000000 1.200000 -0.480000
v -0.339411 1.200000 -0.339411
v -0.480000 1.200000 0.000000
v -0.339411 1.200000 0.339411
v -0.288499 1.095305 0.288500
v -0.408000 1.095305 0.000000
v -0.288500 1.095305 -0.288500
v 0.000000 1.095305 -0.408000
v 0.288500 1.095305 -0.288500
v 0.408000 1.095305 0.000000
v 0.288499 1.095305 0.288500
v -0.000001 1.095305 0.408000
v 0.000000 1.095305 -0.000000
vt 0.894756 0.506223
vt 0.894740 0.491491
vt 0.908538 0.491458
vt 0.908538 0.506223
vt 0.913459 0.511128
vt 0.889834 0.511145
vt 0.889834 0.485279
vt 0.913459 0.485551
vt 0.917414 0.480629
vt 0.885880 0.480374
vt 0.885897 0.515083
vt 0.917397 0.515083
vt 0.925272 0.522279
vt 0.880975 0.521973
vt 0.880925 0.470953
vt 0.925272 0.470786
vt 0.936100 0.458973
vt 0.936083 0.530833
vt 0.870147 0.458901
vt 0.870180 0.530833
vt 0.949881 0.543630
vt 0.855821 0.543630
vt 0.855821 0.447495
vt 0.949898 0.447639
vt 0.976971 0.428407
vt 0.977102 0.562169
vt 0.832741 0.428163
vt 0.832741 0.562358
vt 0.994762 0.343433
vt 0.317190 0.343433
vt 0.317190 0.067513
vt 0.632865 0.457547
vt 0.672178 0.457547
vt 0.672178 0.496860
vt 0.743976 0.474596
vt 0.778309 0.488817
vt 0.758197 0.508929
vt 0.729754 0.508929
vt 0.709642 0.488817
vt 0.709642 0.460374
vt 0.729754 0.440262
vt 0.758197 0.440262
vt 0.778309 0.460374
vt 0.995253 0.960134
vt 0.556595 0.960134
vt 0.666260 0.569986
vt 0.996919 0.959789
vt 0.557281 0.959789
vt 0.667191 0.568770
vt 0.997201 0.961735
vt 0.555883 0.961735
vt 0.666212 0.569222
vt 0.885390 0.569970
vt 0.995064 0.960151
vt 0.556368 0.960151
vt 0.998227 0.960341
vt 0.558588 0.960341
vt 0.668498 0.569322
vt 0.885809 0.573751
vt 0.995077 0.962486
vt 0.558007 0.962486
vt 0.887010 0.571841
vt 0.996920 0.962860
vt 0.557281 0.962860
vt 0.884170 0.573670
vt 0.993104 0.961221
vt 0.557366 0.961221
vt 0.403084 0.920274
vt 0.372000 0.842049
vt 0.500450 0.724197
vt 0.167490 0.920335
vt 0.199329 0.838063
vt 0.007196 0.745538
vt 0.080779 0.714969
vt 0.008839 0.511354
vt 0.085575 0.546013
vt 0.179217 0.357180
vt 0.208243 0.433681
vt 0.407362 0.357180
vt 0.375449 0.433196
vt 0.575402 0.518785
vt 0.497761 0.551026
vt 0.577667 0.757010
vt 0.412977 0.682586
vt 0.413994 0.583210
vt 0.342363 0.512304
vt 0.240312 0.510372
vt 0.166961 0.579658
vt 0.166097 0.679512
vt 0.237399 0.751253
vt 0.339908 0.751922
vt 0.157673 0.203828
vt 0.303102 0.260804
vt 0.214650 0.341381
vt 0.303102 0.146851
vt 0.214650 0.066274
vt 0.100697 0.066274
vt 0.007746 0.146851
vt 0.007746 0.260804
vt 0.100697 0.341381
vt 0.994762 0.067513
vt 0.632865 0.496860
vt 0.885589 0.569986
vt 0.887010 0.568770
vt 0.886871 0.569221
vt 0.666042 0.569970
vt 0.888317 0.569322
vt 0.667274 0.573752
vt 0.667191 0.571841
vt 0.666300 0.573670
vn 0.000000 -1.000000 0.000000
vn -1.000000 -0.000000 -0.000000
vn 0.000000 -0.000000 -1.000000
vn 1.000000 -0.000000 0.000000
vn -0.000000 0.000000 1.000000
vn 0.000000 1.000000 0.000000
vn -0.678600 -0.678600 0.281100
vn -0.678600 -0.678600 -0.281100
vn -0.281100 -0.678600 -0.678600
vn 0.281100 -0.678600 -0.678600
vn 0.678600 -0.678600 -0.281100
vn 0.678600 -0.678600 0.281100
vn 0.281100 -0.678600 0.678600
vn -0.281100 -0.678600 0.678600
vn 0.779800 0.536300 -0.323000
vn 0.779800 0.536300 0.323000
vn 0.323000 0.536300 0.779800
vn -0.323000 0.536300 0.779800
vn -0.779800 0.536300 0.323000
vn -0.779800 0.536300 -0.323000
vn -0.323000 0.536300 -0.779800
vn 0.323000 0.536300 -0.779800
usemtl texture
s off
f 2/1/1 3/2/1 4/3/1
f 1/4/2 5/5/2 6/6/2
f 2/1/3 6/6/3 7/7/3
f 7/7/4 8/8/4 4/3/4
f 1/4/5 4/3/5 8/8/5
f 5/5/6 8/8/6 9/9/6
f 8/8/6 7/7/6 10/10/6
f 7/7/6 6/6/6 11/11/6
f 6/6/6 5/5/6 12/12/6
f 12/12/2 13/13/2 14/14/2
f 11/11/3 14/14/3 15/15/3
f 10/10/4 15/15/4 16/16/4
f 9/9/5 16/16/5 13/13/5
f 16/16/6 17/17/6 20/18/6
f 16/16/6 15/15/6 18/19/6
f 15/15/6 14/14/6 19/20/6
f 13/13/6 20/18/6 19/20/6
f 20/18/2 21/21/2 22/22/2
f 18/19/3 19/20/3 22/22/3
f 17/17/4 18/19/4 23/23/4
f 17/17/5 24/24/5 21/21/5
f 24/24/6 25/25/6 28/26/6
f 23/23/6 26/27/6 25/25/6
f 22/22/6 27/28/6 26/27/6
f 21/21/6 28/26/6 27/28/6
f 28/29/2 29/30/2 30/31/2
f 27/29/3 30/30/3 31/31/3
f 26/29/4 31/30/4 32/31/4
f 25/29/5 32/30/5 29/31/5
f 32/32/6 31/33/6 30/34/6
f 49/35/1 33/36/1 34/37/1
f 49/35/1 34/37/1 35/38/1
f 49/35/1 35/38/1 36/39/1
f 49/35/1 36/39/1 37/40/1
f 49/35/1 37/40/1 38/41/1
f 49/35/1 38/41/1 39/42/1
f 49/35/1 39/42/1 40/43/1
f 49/35/1 40/43/1 33/36/1
f 41/44/7 42/45/7 34/46/7
f 42/47/8 43/48/8 35/49/8
f 43/50/9 44/51/9 36/52/9
f 36/53/10 44/54/10 45/55/10
f 45/56/11 46/57/11 38/58/11
f 38/59/12 46/60/12 47/61/12
f 39/62/13 47/63/13 48/64/13
f 40/65/14 48/66/14 41/67/14
f 48/68/6 50/69/6 57/70/6
f 47/71/6 51/72/6 50/69/6
f 46/73/6 52/74/6 51/72/6
f 45/75/6 53/76/6 52/74/6
f 44/77/6 54/78/6 53/76/6
f 44/77/6 43/79/6 55/80/6
f 43/79/6 42/81/6 56/82/6
f 42/81/6 41/83/6 57/70/6
f 57/70/15 58/84/15 59/85/15
f 55/80/16 56/82/16 59/85/16
f 55/80/17 60/86/17 61/87/17
f 54/78/18 61/87/18 62/88/18
f 53/76/19 62/88/19 63/89/19
f 52/74/20 63/89/20 64/90/20
f 51/72/21 64/90/21 65/91/21
f 50/69/22 65/91/22 58/84/22
f 66/92/6 59/93/6 58/94/6
f 66/92/6 60/95/6 59/93/6
f 66/92/6 61/96/6 60/95/6
f 66/92/6 62/97/6 61/96/6
f 66/92/6 63/98/6 62/97/6
f 66/92/6 64/99/6 63/98/6
f 66/92/6 65/100/6 64/99/6
f 66/92/6 58/94/6 65/100/6
f 1/4/1 2/1/1 4/3/1
f 2/1/2 1/4/2 6/6/2
f 3/2/3 2/1/3 7/7/3
f 3/2/4 7/7/4 4/3/4
f 5/5/5 1/4/5 8/8/5
f 12/12/6 5/5/6 9/9/6
f 9/9/6 8/8/6 10/10/6
f 10/10/6 7/7/6 11/11/6
f 11/11/6 6/6/6 12/12/6
f 11/11/2 12/12/2 14/14/2
f 10/10/3 11/11/3 15/15/3
f 9/9/4 10/10/4 16/16/4
f 12/12/5 9/9/5 13/13/5
f 13/13/6 16/16/6 20/18/6
f 17/17/6 16/16/6 18/19/6
f 18/19/6 15/15/6 19/20/6
f 14/14/6 13/13/6 19/20/6
f 19/20/2 20/18/2 22/22/2
f 23/23/3 18/19/3 22/22/3
f 24/24/4 17/17/4 23/23/4
f 20/18/5 17/17/5 21/21/5
f 21/21/6 24/24/6 28/26/6
f 24/24/6 23/23/6 25/25/6
f 23/23/6 22/22/6 26/27/6
f 22/22/6 21/21/6 27/28/6
f 27/101/2 28/29/2 30/31/2
f 26/101/3 27/29/3 31/31/3
f 25/101/4 26/29/4 32/31/4
f 28/101/5 25/29/5 29/31/5
f 29/102/6 32/32/6 30/34/6
f 33/103/7 41/44/7 34/46/7
f 34/104/8 42/47/8 35/49/8
f 35/105/9 43/50/9 36/52/9
f 37/106/10 36/53/10 45/55/10
f 37/107/11 45/56/11 38/58/11
f 39/108/12 38/59/12 47/61/12
f 40/109/13 39/62/13 48/64/13
f 33/110/14 40/65/14 41/67/14
f 41/83/6 48/68/6 57/70/6
f 48/68/6 47/71/6 50/69/6
f 47/71/6 46/73/6 51/72/6
f 46/73/6 45/75/6 52/74/6
f 45/75/6 44/77/6 53/76/6
f 54/78/6 44/77/6 55/80/6
f 55/80/6 43/79/6 56/82/6
f 56/82/6 42/81/6 57/70/6
f 56/82/15 57/70/15 59/85/15
f 60/86/16 55/80/16 59/85/16
f 54/78/17 55/80/17 61/87/17
f 53/76/18 54/78/18 62/88/18
f 52/74/19 53/76/19 63/89/19
f 51/72/20 52/74/20 64/90/20
f 50/69/21 51/72/21 65/91/21
f 57/70/22 50/69/22 58/84/22
