# Blender v2.74 (sub 0) OBJ File: ''
# www.blender.org
v 0.380934 -0.041542 -0.125307
v 0.353703 3.652543 -0.086779
v 0.379898 3.651920 -0.008496
v 0.407131 -0.042165 -0.047024
v 0.390320 3.651143 0.073388
v 0.417554 -0.042944 0.034860
v 0.384568 3.650242 0.155734
v 0.411800 -0.043846 0.117206
v 0.362859 3.649251 0.235371
v 0.390091 -0.044837 0.196843
v 0.326030 3.648211 0.309242
v 0.353262 -0.045877 0.270717
v 0.275496 3.647154 0.374509
v 0.302730 -0.046930 0.335981
v 0.213201 3.646132 0.428663
v 0.240432 -0.047954 0.390135
v 0.141535 3.645177 0.469625
v 0.168767 -0.048911 0.431097
v 0.063253 3.644327 0.495814
v 0.090487 -0.049760 0.457286
v -0.018633 3.643614 0.506229
v 0.008599 -0.050474 0.467701
v -0.100981 3.643068 0.500468
v -0.073747 -0.051019 0.461940
v -0.180623 3.642707 0.478757
v -0.153391 -0.051382 0.440229
v -0.254499 3.642547 0.441923
v -0.227268 -0.051541 0.403396
v -0.319773 3.642592 0.391385
v -0.292540 -0.051496 0.352857
v -0.373933 3.642842 0.329085
v -0.346699 -0.051245 0.290557
v -0.414898 3.643289 0.257418
v -0.387666 -0.050799 0.218890
v -0.441095 3.643910 0.179138
v -0.413862 -0.050175 0.140610
v -0.451518 3.644689 0.097252
v -0.424283 -0.049397 0.058726
v -0.445763 3.645591 0.014908
v -0.418531 -0.048497 -0.023620
v -0.424056 3.646580 -0.064731
v -0.396822 -0.047507 -0.103260
v -0.387225 3.647622 -0.138602
v -0.359994 -0.046463 -0.177130
v -0.336693 3.648675 -0.203870
v -0.309460 -0.045410 -0.242398
v -0.274396 3.649699 -0.258024
v -0.247164 -0.044389 -0.296552
v -0.202729 3.650656 -0.298982
v -0.175498 -0.043433 -0.337510
v -0.124450 3.651505 -0.325171
v -0.097216 -0.042582 -0.363699
v -0.042562 3.652218 -0.335588
v -0.015331 -0.041870 -0.374116
v 0.039784 3.652764 -0.329829
v 0.067018 -0.041323 -0.368357
v 0.119428 3.653127 -0.308114
v 0.146660 -0.040961 -0.346642
v 0.193304 3.653286 -0.271281
v 0.220536 -0.040802 -0.309809
v 0.258578 3.653241 -0.220743
v 0.285809 -0.040847 -0.259271
v 0.337311 4.544585 -0.501799
v 0.446473 4.544508 -0.417282
v 0.339970 -0.041097 -0.196972
v 0.312736 3.652990 -0.158444
v 0.649371 4.542302 -0.062320
v 0.605561 4.543344 -0.193237
v 0.537051 4.544089 -0.313091
v 0.213760 4.544317 -0.563399
v 0.080566 4.543714 -0.599715
v -0.057151 4.542800 -0.609346
v -0.194098 4.541609 -0.591928
v -0.325014 4.540185 -0.548127
v -0.444868 4.538588 -0.479630
v -0.549054 4.536874 -0.389062
v -0.633566 4.535113 -0.279909
v -0.695159 4.533371 -0.156366
v -0.731463 4.531714 -0.023180
v -0.741084 4.530207 0.114534
v -0.723657 4.528907 0.251480
v -0.679844 4.527866 0.382396
v -0.611333 4.527119 0.502253
v -0.520756 4.526702 0.606439
v -0.411594 4.526626 0.690958
v -0.288043 4.526894 0.752558
v -0.154849 4.527497 0.788872
v -0.017132 4.528411 0.798505
v 0.119815 4.529602 0.781086
v 0.250731 4.531024 0.737286
v 0.370586 4.532621 0.668785
v 0.474770 4.534333 0.578221
v 0.559283 4.536098 0.469068
v 0.620873 4.537838 0.345524
v 0.657178 4.539496 0.212335
v 0.666802 4.541001 0.074624
vt 0.271971 0.279332
vt 0.272398 0.280508
vt 0.359422 0.544671
vt 0.273046 0.281577
vt 0.273888 0.282500
vt 0.455465 0.493246
vt 0.274892 0.283242
vt 0.276021 0.283777
vt 0.524544 0.408978
vt 0.277231 0.284084
vt 0.278477 0.284155
vt 0.556139 0.304707
vt 0.279716 0.283987
vt 0.556139 0.249988
vt 0.280894 0.283569
vt 0.545314 0.196398
vt 0.281965 0.282916
vt 0.282913 0.282094
vt 0.493951 0.100732
vt 0.283672 0.281101
vt 0.284215 0.279979
vt 0.409920 0.031836
vt 0.284521 0.278773
vt 0.359428 0.010906
vt 0.284582 0.277530
vt 0.284395 0.276299
vt 0.251089 0.000166
vt 0.283969 0.275127
vt 0.283322 0.274059
vt 0.146817 0.031689
vt 0.282478 0.273135
vt 0.101267 0.062052
vt 0.281471 0.272389
vt 0.280338 0.271849
vt 0.032031 0.146206
vt 0.279121 0.271534
vt 0.011007 0.196769
vt 0.277867 0.271454
vt 0.276621 0.271612
vt 0.000166 0.305247
vt 0.275433 0.272018
vt 0.010949 0.358950
vt 0.274352 0.272652
vt 0.031990 0.409501
vt 0.273419 0.273490
vt 0.272671 0.274495
vt 0.101234 0.493610
vt 0.272137 0.275629
vt 0.271836 0.276844
vt 0.197356 0.544829
vt 0.258078 0.663302
vt 0.234977 0.658672
vt 0.244491 0.555779
vt 0.251036 0.555446
vt 0.271781 0.278095
vt 0.716608 0.550682
vt 0.692656 0.307497
vt 0.804421 0.419261
vt 0.851973 0.823591
vt 0.673027 0.970448
vt 0.468868 0.664904
vt 0.107232 0.812015
vt 0.116147 0.833745
vt 0.025430 0.882897
vt 0.299315 0.685357
vt 0.364184 0.605171
vt 0.395164 0.636030
vt 0.315116 0.854045
vt 0.328314 0.834554
vt 0.419632 0.882865
vt 0.107601 0.742506
vt 0.102875 0.765498
vt 0.000197 0.755819
vt 0.256862 0.892476
vt 0.278692 0.883578
vt 0.327817 0.974567
vt 0.146730 0.684912
vt 0.129964 0.701437
vt 0.049943 0.636171
vt 0.337791 0.743277
vt 0.328881 0.721549
vt 0.419530 0.672355
vt 0.210134 0.896861
vt 0.200529 0.999818
vt 0.157573 0.991268
vt 0.211394 0.658592
vt 0.188240 0.663073
vt 0.157820 0.564290
vt 0.145739 0.869997
vt 0.080712 0.950212
vt 0.049751 0.919276
vt 0.342158 0.789837
vt 0.444938 0.799449
vt 0.436402 0.842400
vt 0.287383 0.564279
vt 0.327790 0.580950
vt 0.102751 0.788968
vt 0.008687 0.842476
vt 0.395275 0.919282
vt 0.364271 0.950247
vt 0.116749 0.720879
vt 0.008778 0.712920
vt 0.233714 0.896965
vt 0.287320 0.991309
vt 0.166406 0.671955
vt 0.080936 0.605268
vt 0.436331 0.712753
vt 0.444913 0.755669
vt 0.187029 0.892181
vt 0.117118 0.974519
vt 0.200746 0.555779
vt 0.129148 0.853326
vt 0.337445 0.812872
vt 0.279795 0.672291
vt 0.000166 0.799565
vt 0.298362 0.870601
vt 0.025576 0.672520
vt 0.315889 0.701991
vt 0.244339 0.999834
vt 0.117363 0.580998
vt 0.342275 0.766336
vt 0.165284 0.883114
vt 0.305756 0.555394
vt 0.409972 0.523688
vt 0.494152 0.454514
vt 0.545474 0.358393
vt 0.524302 0.146007
vt 0.455338 0.062174
vt 0.305798 0.000208
vt 0.197407 0.010794
vt 0.062508 0.100718
vt 0.000247 0.250469
vt 0.062476 0.454968
vt 0.146776 0.523951
vt 0.570581 0.372748
vt 0.584149 0.352443
vt 0.601417 0.335175
vt 0.561236 0.395310
vt 0.561236 0.467633
vt 0.556471 0.443682
vt 0.556472 0.419261
vt 0.570581 0.490195
vt 0.621721 0.541336
vt 0.601416 0.527768
vt 0.584148 0.510500
vt 0.644283 0.550682
vt 0.692656 0.555446
vt 0.668235 0.555446
vt 0.776744 0.510501
vt 0.739170 0.541337
vt 0.759475 0.527769
vt 0.804421 0.443682
vt 0.799657 0.467634
vt 0.790311 0.490195
vt 0.790311 0.372748
vt 0.799657 0.395310
vt 0.759475 0.335174
vt 0.776744 0.352442
vt 0.716608 0.312261
vt 0.739170 0.321607
vt 0.644284 0.312261
vt 0.668236 0.307497
vt 0.621722 0.321607
vt 0.836344 0.861323
vt 0.813654 0.895281
vt 0.836344 0.664904
vt 0.859941 0.783534
vt 0.851973 0.702636
vt 0.859941 0.742693
vt 0.784775 0.602066
vt 0.813654 0.630946
vt 0.713084 0.563747
vt 0.750816 0.579376
vt 0.632185 0.555779
vt 0.673027 0.555779
vt 0.592129 0.563747
vt 0.520438 0.602066
vt 0.554396 0.579376
vt 0.491558 0.630945
vt 0.445271 0.783534
vt 0.445271 0.742693
vt 0.453239 0.702636
vt 0.491558 0.895281
vt 0.453239 0.823590
vt 0.468868 0.861323
vt 0.554396 0.946851
vt 0.520437 0.924161
vt 0.632185 0.970448
vt 0.592129 0.962481
vt 0.750816 0.946851
vt 0.713084 0.962481
vt 0.784774 0.924161
vn 0.948300 0.010300 -0.317200
vn 0.992000 0.008600 -0.126200
vn 0.997500 0.006600 0.069800
vn 0.964800 0.004400 0.263100
vn 0.894900 0.001900 0.446200
vn 0.790700 -0.000600 0.612200
vn 0.656100 -0.003000 0.754700
vn 0.496300 -0.005400 0.868200
vn 0.317300 -0.007600 0.948300
vn 0.126300 -0.009400 0.992000
vn -0.069700 -0.010900 0.997500
vn -0.262900 -0.012000 0.964700
vn -0.446100 -0.012600 0.894900
vn -0.612200 -0.012800 0.790600
vn -0.754700 -0.012400 0.656000
vn -0.868200 -0.011600 0.496200
vn -0.948300 -0.010300 0.317300
vn -0.992000 -0.008600 0.126200
vn -0.997500 -0.006600 -0.069800
vn -0.964800 -0.004400 -0.263000
vn -0.894900 -0.001900 -0.446200
vn -0.790700 0.000600 -0.612200
vn -0.656100 0.003000 -0.754700
vn -0.496200 0.005400 -0.868200
vn -0.317300 0.007600 -0.948300
vn -0.126300 0.009400 -0.992000
vn 0.069700 0.010900 -0.997500
vn 0.263000 0.012000 -0.964700
vn 0.446100 0.012600 -0.894900
vn 0.612200 0.012800 -0.790600
vn 0.585700 -0.290300 -0.756700
vn 0.868100 0.011600 -0.496200
vn 0.754700 0.012400 -0.656000
vn 0.007400 -0.999900 -0.010400
vn -0.007400 0.999900 0.010400
vn -0.948600 -0.308800 -0.069700
vn 0.906100 -0.292700 -0.305500
vn 0.475200 -0.307700 0.824300
vn -0.751400 -0.302000 -0.586600
vn -0.064200 -0.312900 0.947600
vn -0.300200 -0.295300 -0.907000
vn 0.953000 -0.296200 0.063300
vn -0.581200 -0.314700 0.750400
vn 0.252900 -0.291100 -0.922700
vn -0.901600 -0.312300 0.299200
vn 0.755900 -0.303000 0.580400
vn 0.721500 -0.290700 -0.628400
vn -0.917300 -0.306700 -0.253800
vn 0.304700 -0.309700 0.900700
vn -0.623100 -0.299600 -0.722500
vn -0.248400 -0.313900 0.916400
vn -0.118100 -0.293500 -0.948600
vn 0.921800 -0.298300 0.247500
vn -0.717000 -0.314300 0.622100
vn 0.427500 -0.290500 -0.856100
vn -0.943300 -0.310700 0.117100
vn 0.627600 -0.305400 0.716200
vn 0.829700 -0.291500 -0.476100
vn -0.850800 -0.304400 -0.428400
vn 0.122600 -0.311500 0.942300
vn -0.470700 -0.297400 -0.830600
vn 0.947700 -0.294300 -0.123400
vn -0.423000 -0.314500 0.849800
vn 0.068700 -0.292100 -0.953900
vn 0.855200 -0.300700 0.422100
vn -0.825200 -0.313500 0.469700
vn 0.948300 0.010300 -0.317300
vn 0.496300 -0.005400 0.868100
vn -0.868100 -0.011600 0.496200
vn -0.997500 -0.006600 -0.069700
vn 0.868200 0.011600 -0.496200
vn 0.754600 0.012400 -0.656000
vn 0.007400 -0.999900 -0.010500
vn 0.007500 -0.999900 -0.010200
vn 0.007300 -0.999900 -0.010500
vn 0.007300 -0.999900 -0.010400
vn 0.007400 -0.999900 -0.010600
vn -0.007300 0.999900 0.010400
vn -0.007600 0.999900 0.010300
vn -0.007400 0.999900 0.010500
vn -0.007500 0.999900 0.010500
vn -0.007300 0.999900 0.010500
vn -0.948600 -0.308800 -0.069600
vn -0.751400 -0.302000 -0.586700
vn 0.953000 -0.296200 0.063400
vn -0.901600 -0.312300 0.299300
vn -0.917300 -0.306700 -0.253900
vn 0.921800 -0.298300 0.247600
vn -0.717100 -0.314300 0.622100
vn -0.850700 -0.304400 -0.428500
vn -0.470800 -0.297400 -0.830600
vn 0.068600 -0.292100 -0.953900
vn -0.825200 -0.313500 0.469800
s off
f 2/1/1 3/2/1 4/3/1
f 4/3/2 3/2/2 5/4/2
f 5/4/3 7/5/3 8/6/3
f 8/6/4 7/5/4 9/7/4
f 9/7/5 11/8/5 12/9/5
f 12/9/6 11/8/6 13/10/6
f 13/10/7 15/11/7 16/12/7
f 15/11/8 17/13/8 18/14/8
f 17/13/9 19/15/9 20/16/9
f 20/16/10 19/15/10 21/17/10
f 21/17/11 23/18/11 24/19/11
f 24/19/12 23/18/12 25/20/12
f 25/20/13 27/21/13 28/22/13
f 28/22/14 27/21/14 29/23/14
f 30/24/15 29/23/15 31/25/15
f 31/25/16 33/26/16 34/27/16
f 34/27/17 33/26/17 35/28/17
f 35/28/18 37/29/18 38/30/18
f 38/30/19 37/29/19 39/31/19
f 40/32/20 39/31/20 41/33/20
f 41/33/21 43/34/21 44/35/21
f 43/34/22 45/36/22 46/37/22
f 46/37/23 45/36/23 47/38/23
f 47/38/24 49/39/24 50/40/24
f 49/39/25 51/41/25 52/42/25
f 51/41/26 53/43/26 54/44/26
f 54/44/27 53/43/27 55/45/27
f 55/45/28 57/46/28 58/47/28
f 58/47/29 57/46/29 59/48/29
f 59/48/30 61/49/30 62/50/30
f 61/51/31 59/52/31 63/53/31
f 65/54/32 66/55/32 2/1/32
f 61/49/33 66/55/33 65/54/33
f 38/56/34 10/57/34 24/58/34
f 95/59/35 63/60/35 80/61/35
f 39/62/36 37/63/36 80/64/36
f 2/65/37 68/66/37 67/67/37
f 17/68/38 15/69/38 91/70/38
f 45/71/39 43/72/39 77/73/39
f 23/74/40 21/75/40 88/76/40
f 51/77/41 49/78/41 74/79/41
f 7/80/42 5/81/42 96/82/42
f 27/83/43 85/84/43 84/85/43
f 57/86/44 55/87/44 71/88/44
f 33/89/45 82/90/45 81/91/45
f 11/92/46 93/93/46 92/94/46
f 61/51/47 64/95/47 69/96/47
f 41/97/48 39/62/48 79/98/48
f 17/68/49 90/99/49 89/100/49
f 47/101/50 45/71/50 76/102/50
f 25/103/51 23/74/51 87/104/51
f 53/105/52 51/77/52 73/106/52
f 7/80/53 95/107/53 94/108/53
f 29/109/54 84/85/54 83/110/54
f 57/86/55 70/111/55 63/53/55
f 37/63/56 35/112/56 81/91/56
f 15/69/57 13/113/57 92/94/57
f 66/114/58 69/96/58 68/66/58
f 41/97/59 78/115/59 77/73/59
f 21/75/60 19/116/60 89/100/60
f 49/78/61 47/101/61 75/117/61
f 5/81/62 3/118/62 67/67/62
f 27/83/63 25/103/63 86/119/63
f 53/105/64 72/120/64 71/88/64
f 11/92/65 9/121/65 94/108/65
f 33/89/66 31/122/66 83/110/66
f 1/123/67 2/1/67 4/3/67
f 6/124/2 4/3/2 5/4/2
f 6/124/3 5/4/3 8/6/3
f 10/125/4 8/6/4 9/7/4
f 10/125/5 9/7/5 12/9/5
f 14/126/6 12/9/6 13/10/6
f 14/126/7 13/10/7 16/12/7
f 16/12/68 15/11/68 18/14/68
f 18/14/9 17/13/9 20/16/9
f 22/127/10 20/16/10 21/17/10
f 22/127/11 21/17/11 24/19/11
f 26/128/12 24/19/12 25/20/12
f 26/128/13 25/20/13 28/22/13
f 30/24/14 28/22/14 29/23/14
f 32/129/15 30/24/15 31/25/15
f 32/129/69 31/25/69 34/27/69
f 36/130/17 34/27/17 35/28/17
f 36/130/18 35/28/18 38/30/18
f 40/32/70 38/30/70 39/31/70
f 42/131/20 40/32/20 41/33/20
f 42/131/21 41/33/21 44/35/21
f 44/35/22 43/34/22 46/37/22
f 48/132/23 46/37/23 47/38/23
f 48/132/24 47/38/24 50/40/24
f 50/40/25 49/39/25 52/42/25
f 52/42/26 51/41/26 54/44/26
f 56/133/27 54/44/27 55/45/27
f 56/133/28 55/45/28 58/47/28
f 60/134/29 58/47/29 59/48/29
f 60/134/30 59/48/30 62/50/30
f 64/95/31 61/51/31 63/53/31
f 1/123/71 65/54/71 2/1/71
f 62/50/72 61/49/72 65/54/72
f 62/135/73 65/136/73 1/137/73
f 1/137/34 60/138/34 62/135/34
f 54/139/34 56/140/34 58/141/34
f 58/141/34 52/142/34 54/139/34
f 46/143/74 48/144/74 50/145/74
f 50/145/75 44/146/75 46/143/75
f 38/56/34 40/147/34 42/148/34
f 32/149/76 36/150/76 38/56/76
f 36/150/34 32/149/34 34/151/34
f 26/152/76 28/153/76 30/154/76
f 30/154/73 24/58/73 26/152/73
f 24/58/77 20/155/77 22/156/77
f 20/155/75 16/157/75 18/158/75
f 10/57/34 12/159/34 14/160/34
f 6/161/34 8/162/34 10/57/34
f 10/57/76 4/163/76 6/161/76
f 52/142/34 60/138/34 1/137/34
f 60/138/73 52/142/73 58/141/73
f 52/142/34 44/146/34 50/145/34
f 44/146/34 38/56/34 42/148/34
f 24/58/34 30/154/34 32/149/34
f 16/157/34 20/155/34 24/58/34
f 24/58/34 14/160/34 16/157/34
f 1/137/34 4/163/34 10/57/34
f 10/57/34 52/142/34 1/137/34
f 52/142/34 38/56/34 44/146/34
f 38/56/34 24/58/34 32/149/34
f 24/58/34 10/57/34 14/160/34
f 10/57/34 38/56/34 52/142/34
f 95/59/78 96/164/78 67/165/78
f 91/166/35 94/167/35 95/59/35
f 94/167/79 92/168/79 93/169/79
f 89/170/35 90/171/35 91/166/35
f 87/172/35 88/173/35 89/170/35
f 85/174/80 86/175/80 87/172/80
f 80/61/35 84/176/35 85/174/35
f 84/176/81 82/177/81 83/178/81
f 82/177/35 80/61/35 81/179/35
f 77/180/82 78/181/82 79/182/82
f 74/183/35 76/184/35 77/180/35
f 76/184/80 74/183/80 75/185/80
f 74/183/80 72/186/80 73/187/80
f 72/186/35 70/188/35 71/189/35
f 69/190/80 64/191/80 63/60/80
f 67/165/35 68/192/35 69/190/35
f 63/60/35 95/59/35 67/165/35
f 94/167/82 91/166/82 92/168/82
f 85/174/35 87/172/35 89/170/35
f 80/61/35 82/177/35 84/176/35
f 77/180/35 79/182/35 80/61/35
f 80/61/35 74/183/35 77/180/35
f 63/60/35 70/188/35 72/186/35
f 67/165/35 69/190/35 63/60/35
f 89/170/35 91/166/35 95/59/35
f 80/61/35 85/174/35 89/170/35
f 72/186/35 74/183/35 80/61/35
f 80/61/35 63/60/35 72/186/35
f 80/61/35 89/170/35 95/59/35
f 79/98/83 39/62/83 80/64/83
f 3/118/37 2/65/37 67/67/37
f 90/99/38 17/68/38 91/70/38
f 76/102/84 45/71/84 77/73/84
f 87/104/40 23/74/40 88/76/40
f 73/106/41 51/77/41 74/79/41
f 95/107/85 7/80/85 96/82/85
f 29/109/43 27/83/43 84/85/43
f 70/111/44 57/86/44 71/88/44
f 35/112/86 33/89/86 81/91/86
f 13/113/46 11/92/46 92/94/46
f 66/114/47 61/51/47 69/96/47
f 78/115/87 41/97/87 79/98/87
f 19/116/49 17/68/49 89/100/49
f 75/117/50 47/101/50 76/102/50
f 86/119/51 25/103/51 87/104/51
f 72/120/52 53/105/52 73/106/52
f 9/121/88 7/80/88 94/108/88
f 31/122/89 29/109/89 83/110/89
f 59/52/55 57/86/55 63/53/55
f 80/64/56 37/63/56 81/91/56
f 91/70/57 15/69/57 92/94/57
f 2/65/58 66/114/58 68/66/58
f 43/72/90 41/97/90 77/73/90
f 88/76/60 21/75/60 89/100/60
f 74/79/91 49/78/91 75/117/91
f 96/82/62 5/81/62 67/67/62
f 85/84/63 27/83/63 86/119/63
f 55/87/92 53/105/92 71/88/92
f 93/93/65 11/92/65 94/108/65
f 82/90/93 33/89/93 83/110/93
