# Blender v2.72 (sub 0) OBJ File: 'Table.blend'
# www.blender.org
mtllib model.mtl
o Table
v -1.088640 1.021248 0.673920
v -1.088640 1.021248 -0.673920
v -1.088640 1.156032 0.673920
v -1.088640 1.156032 -0.673920
v -0.829440 1.036800 -0.518400
v -0.829440 0.000000 -0.518400
v -1.036800 0.000000 -0.518400
v -1.036800 1.036800 -0.518400
v -0.829440 1.036800 -0.311040
v -0.829440 0.000000 -0.311040
v -1.036800 0.000000 -0.311040
v -1.036800 1.036800 -0.311040
v -1.192320 1.021248 0.570240
v -1.192320 1.156032 0.570240
v -1.192320 1.021248 -0.570240
v -1.192320 1.156032 -0.570240
v 1.192320 1.156032 -0.570240
v 1.192320 1.021248 -0.570240
v 1.192320 1.156032 0.570240
v 1.192320 1.021248 0.570240
v 1.088640 1.156032 -0.673920
v 1.088640 1.156032 0.673920
v 1.088640 1.021248 -0.673920
v 1.088640 1.021248 0.673920
v -1.036800 1.036800 0.518400
v -1.036800 0.000000 0.518400
v -0.829440 0.000000 0.518400
v -0.829440 1.036800 0.518400
v -1.036800 1.036800 0.311040
v -1.036800 0.000000 0.311040
v -0.829440 0.000000 0.311040
v -0.829440 1.036800 0.311040
v 1.036800 1.036800 0.311040
v 1.036800 0.000000 0.311040
v 0.829440 0.000000 0.311040
v 0.829440 1.036800 0.311040
v 1.036800 1.036800 0.518400
v 1.036800 0.000000 0.518400
v 0.829440 0.000000 0.518400
v 0.829440 1.036800 0.518400
v 0.829440 1.036800 -0.311040
v 0.829440 0.000000 -0.311040
v 1.036800 0.000000 -0.311040
v 1.036800 1.036800 -0.311040
v 0.829440 1.036800 -0.518400
v 0.829440 0.000000 -0.518400
v 1.036800 0.000000 -0.518400
v 1.036800 1.036800 -0.518400
vt 0.705573 0.613150
vt 0.705573 0.997502
vt 0.628703 0.997502
vt 0.859314 0.613150
vt 0.782444 0.613150
vt 0.782443 0.536279
vt 0.859314 0.997502
vt 0.782444 0.997502
vt 0.936185 0.997502
vt 0.014996 0.720457
vt 0.015278 0.656073
vt 0.063578 0.656053
vt 0.580397 0.655957
vt 0.580397 0.720567
vt 0.535023 0.720581
vt 0.063578 0.720374
vt 0.535024 0.656056
vt 0.015680 0.045882
vt 0.059036 0.002525
vt 0.535960 0.002525
vt 0.015680 0.956373
vt 0.059037 0.999730
vt 0.535961 0.999730
vt 0.534946 0.720640
vt 0.063539 0.720245
vt 0.063535 0.656063
vt 0.015161 0.656219
vt 0.580443 0.720526
vt 0.534863 0.655964
vt 0.141216 0.095993
vt 0.217751 0.096264
vt 0.217752 0.684283
vt 0.218504 0.684222
vt 0.141606 0.685637
vt 0.141606 0.097618
vt 0.579318 0.956373
vt 0.628703 0.613150
vt 0.859314 0.536279
vt 0.936185 0.613150
vt 0.579317 0.045881
vt 0.015164 0.720478
vt 0.580360 0.655850
vt 0.141216 0.684011
vt 0.218505 0.096203
vn 1.000000 0.000000 0.000000
vn 0.000000 -1.000000 0.000000
vn -1.000000 -0.000000 0.000000
vn -0.000000 0.000000 -1.000000
vn 0.000000 0.000000 1.000000
vn -0.707100 0.000000 0.707100
vn -0.707100 0.000000 -0.707100
vn 0.000000 1.000000 -0.000000
vn 0.707100 0.000000 -0.707100
vn 0.707100 0.000000 0.707100
usemtl texture
s off
f 6/1/1 5/2/1 9/3/1
f 11/4/2 7/5/2 6/6/2
f 12/7/3 8/8/3 7/5/3
f 5/2/4 6/1/4 7/5/4
f 9/9/5 12/7/5 11/4/5
f 1/10/6 3/11/6 14/12/6
f 4/13/7 2/14/7 15/15/7
f 13/16/3 14/12/3 16/17/3
f 4/18/8 16/19/8 14/20/8
f 13/20/2 15/19/2 2/18/2
f 23/21/2 18/22/2 20/23/2
f 19/23/8 17/22/8 21/21/8
f 20/24/1 18/25/1 17/26/1
f 21/27/9 17/26/9 18/25/9
f 24/28/10 20/24/10 19/29/10
f 24/30/5 22/31/5 3/32/5
f 2/33/4 4/34/4 21/35/4
f 22/36/8 21/21/8 4/18/8
f 2/18/2 23/21/2 24/36/2
f 28/9/5 25/7/5 26/4/5
f 32/2/4 31/1/4 30/5/4
f 25/7/3 29/8/3 30/5/3
f 26/4/2 30/5/2 31/6/2
f 31/1/1 32/2/1 28/3/1
f 34/1/1 33/2/1 37/3/1
f 39/4/2 35/5/2 34/6/2
f 36/8/3 35/5/3 39/4/3
f 33/2/4 34/1/4 35/5/4
f 37/9/5 40/7/5 39/4/5
f 44/9/5 41/7/5 42/4/5
f 48/2/4 47/1/4 46/5/4
f 45/8/3 46/5/3 42/4/3
f 42/4/2 46/5/2 47/6/2
f 47/1/1 48/2/1 44/3/1
f 10/37/1 6/1/1 9/3/1
f 10/38/2 11/4/2 6/6/2
f 11/4/3 12/7/3 7/5/3
f 8/8/4 5/2/4 7/5/4
f 10/39/5 9/9/5 11/4/5
f 13/16/6 1/10/6 14/12/6
f 16/17/7 4/13/7 15/15/7
f 15/15/3 13/16/3 16/17/3
f 3/40/8 4/18/8 14/20/8
f 1/40/2 13/20/2 2/18/2
f 24/36/2 23/21/2 20/23/2
f 22/36/8 19/23/8 21/21/8
f 19/29/1 20/24/1 17/26/1
f 23/41/9 21/27/9 18/25/9
f 22/42/10 24/28/10 19/29/10
f 1/43/5 24/30/5 3/32/5
f 23/44/4 2/33/4 21/35/4
f 3/40/8 22/36/8 4/18/8
f 1/40/2 2/18/2 24/36/2
f 27/39/5 28/9/5 26/4/5
f 29/8/4 32/2/4 30/5/4
f 26/4/3 25/7/3 30/5/3
f 27/38/2 26/4/2 31/6/2
f 27/37/1 31/1/1 28/3/1
f 38/37/1 34/1/1 37/3/1
f 38/38/2 39/4/2 34/6/2
f 40/7/3 36/8/3 39/4/3
f 36/8/4 33/2/4 35/5/4
f 38/39/5 37/9/5 39/4/5
f 43/39/5 44/9/5 42/4/5
f 45/8/4 48/2/4 46/5/4
f 41/7/3 45/8/3 42/4/3
f 43/38/2 42/4/2 47/6/2
f 43/37/1 47/1/1 44/3/1
