# Blender v2.74 (sub 0) OBJ File: 'archerySetOGA.blend'
# www.blender.org
v 0.047862 0.135423 -0.197239
v 0.158938 0.135567 -0.197227
v 0.065290 0.169638 -0.196379
v 0.176367 0.169782 -0.196366
v 0.047862 0.135417 -0.195812
v 0.158938 0.135561 -0.195799
v 0.047873 0.126209 -0.195840
v 0.158950 0.126352 -0.195827
v 0.065391 0.092039 -0.196696
v 0.176467 0.092182 -0.196684
v 0.047874 0.126215 -0.197268
v 0.158950 0.126358 -0.197255
v -0.169551 0.127837 -0.192290
v -0.169548 0.125390 -0.196570
v -0.169550 0.127873 -0.200829
v -0.169557 0.132802 -0.200808
v -0.169560 0.135249 -0.196528
v -0.169558 0.132766 -0.192269
v 0.179265 0.128287 -0.192251
v 0.179269 0.125840 -0.196530
v 0.179266 0.128323 -0.200789
v 0.179260 0.133253 -0.200768
v 0.179256 0.135700 -0.196489
v 0.179259 0.133217 -0.192230
v -0.657151 0.127207 -0.192346
v -0.657147 0.124760 -0.196625
v -0.657150 0.127243 -0.200884
v -0.657156 0.132173 -0.200863
v -0.657160 0.134620 -0.196584
v -0.657157 0.132137 -0.192325
v -0.659157 0.125986 -0.190256
v -0.659152 0.122338 -0.196636
v -0.659156 0.126040 -0.202985
v -0.659166 0.133389 -0.202954
v -0.659171 0.137037 -0.196574
v -0.659167 0.133335 -0.190224
v -0.709102 0.129623 -0.196610
v 0.179262 0.130770 -0.196509
vt 0.924123 0.020120
vt 0.866832 0.006982
vt 0.866832 0.090504
vt 0.924111 0.103642
vt 0.955953 0.600485
vt 0.955383 0.991439
vt 0.947499 0.991439
vt 0.940160 0.600484
vt 0.948056 0.600485
vt 0.963844 0.600486
vt 0.963237 0.991442
vt 0.955340 0.991441
vt 0.955947 0.600486
vt 0.939571 0.991440
vt 0.963850 0.600485
vt 0.963268 0.991440
vt 0.947558 0.006239
vt 0.939662 0.006239
vt 0.955392 0.006240
vt 0.947509 0.006240
vt 0.939626 0.006240
vt 0.963323 0.006240
vt 0.904959 0.116902
vt 0.913204 0.117164
vt 0.913368 0.121064
vt 0.919932 0.116978
vt 0.923991 0.121135
vt 0.876545 0.116458
vt 0.882808 0.116895
vt 0.882365 0.120744
vt 0.889761 0.116921
vt 0.889756 0.120793
vt 0.897183 0.116726
vt 0.896891 0.120847
vt 0.904391 0.120919
vt 0.897990 0.177760
vt 0.873301 0.121026
vt 0.904591 0.186497
vt 0.904591 0.190130
vt 0.897610 0.188313
vt 0.897610 0.184680
vt 0.890629 0.186497
vt 0.890629 0.190130
vt 0.897610 0.191947
vn -0.000100 0.016600 0.999900
vn 0.000100 0.025100 -0.999700
vn 0.000100 -0.016600 -0.999900
vn -0.000100 -0.025100 0.999700
vn -0.000100 -0.004200 1.000000
vn -0.001200 0.863900 0.503600
vn -0.001100 0.868100 -0.496300
vn 0.000100 0.004200 -1.000000
vn 0.001200 -0.863900 -0.503700
vn 0.001100 -0.868100 0.496300
vn -0.001200 0.863900 0.503700
vn 0.722000 -0.002000 0.691900
vn 0.721200 0.598600 0.348500
vn 0.721300 0.601500 -0.343300
vn 0.722100 0.003800 -0.691700
vn 0.722900 -0.596800 -0.348400
vn 0.722800 -0.599600 0.343500
vn -0.126500 -0.004400 0.992000
vn -0.127600 0.856800 0.499600
vn -0.127500 0.861000 -0.492400
vn -0.126300 0.004000 -0.992000
vn -0.125300 -0.857100 -0.499600
vn -0.125400 -0.861300 0.492300
vn 1.000000 0.001300 0.000100
vn 0.001200 -0.863900 -0.503600
vn 0.721300 0.598600 0.348500
vn 0.722100 0.003900 -0.691700
vn 0.722800 -0.599700 0.343500
s off
f 3/1/1 5/2/1 6/3/1
f 3/1/2 4/4/2 2/3/2
f 9/1/3 11/2/3 12/3/3
f 9/1/4 10/4/4 8/3/4
f 13/5/5 19/6/5 24/7/5
f 17/8/6 18/9/6 24/7/6
f 17/10/7 23/11/7 22/12/7
f 16/13/8 22/12/8 21/7/8
f 15/9/9 21/7/9 20/14/9
f 14/15/10 20/16/10 19/6/10
f 13/5/5 18/9/5 30/17/5
f 17/8/11 29/18/11 30/17/11
f 17/10/7 16/13/7 28/19/7
f 15/9/8 27/20/8 28/19/8
f 14/8/9 26/21/9 27/20/9
f 13/5/10 25/19/10 26/22/10
f 25/23/12 30/24/12 36/25/12
f 29/26/13 35/27/13 36/25/13
f 29/28/14 28/29/14 34/30/14
f 27/31/15 33/32/15 34/30/15
f 27/31/16 26/33/16 32/34/16
f 26/33/17 25/23/17 31/35/17
f 31/35/18 36/25/18 37/36/18
f 36/25/19 35/27/19 37/36/19
f 35/37/20 34/30/20 37/36/20
f 34/30/21 33/32/21 37/36/21
f 33/32/22 32/34/22 37/36/22
f 32/34/23 31/35/23 37/36/23
f 24/38/24 19/39/24 38/40/24
f 23/41/24 24/38/24 38/40/24
f 22/42/24 23/41/24 38/40/24
f 21/43/24 22/42/24 38/40/24
f 20/44/24 21/43/24 38/40/24
f 19/39/24 20/44/24 38/40/24
f 4/4/1 3/1/1 6/3/1
f 1/2/2 3/1/2 2/3/2
f 10/4/3 9/1/3 12/3/3
f 7/2/4 9/1/4 8/3/4
f 18/9/5 13/5/5 24/7/5
f 23/14/6 17/8/6 24/7/6
f 16/13/7 17/10/7 22/12/7
f 15/9/8 16/13/8 21/7/8
f 14/8/9 15/9/9 20/14/9
f 13/5/10 14/15/10 19/6/10
f 25/19/5 13/5/5 30/17/5
f 18/9/11 17/8/11 30/17/11
f 29/22/7 17/10/7 28/19/7
f 16/13/8 15/9/8 28/19/8
f 15/9/25 14/8/25 27/20/25
f 14/15/10 13/5/10 26/22/10
f 31/35/12 25/23/12 36/25/12
f 30/24/26 29/26/26 36/25/26
f 35/37/14 29/28/14 34/30/14
f 28/29/27 27/31/27 34/30/27
f 33/32/16 27/31/16 32/34/16
f 32/34/28 26/33/28 31/35/28
