# Blender v2.74 (sub 0) OBJ File: ''
# www.blender.org
o Chair
v 0.343000 0.617400 0.343000
v -0.343000 0.617400 0.343000
v -0.343000 0.617400 -0.343000
v 0.343000 0.686000 -0.343000
v -0.343000 0.686000 -0.343000
v -0.343000 0.686000 0.343000
v 0.343000 0.617400 -0.343000
v 0.343000 0.686000 0.343000
v 0.240445 0.617577 0.240445
v 0.308355 0.617577 0.240445
v 0.308355 -0.000602 0.240445
v 0.240445 0.617577 0.308355
v 0.240445 -0.000602 0.240445
v 0.308355 0.617577 0.308355
v 0.240445 -0.000602 0.308355
v 0.308355 -0.000602 0.308355
v 0.274400 -0.000602 0.274400
v 0.274400 -0.000602 -0.274400
v 0.308355 -0.000602 -0.308355
v 0.308355 -0.000602 -0.240445
v 0.240445 -0.000602 -0.240445
v 0.240445 -0.000602 -0.308355
v 0.308355 1.372178 -0.308355
v 0.308355 1.372178 -0.240445
v 0.240445 1.372178 -0.240445
v 0.240445 1.372178 -0.308355
v 0.247953 1.192005 -0.288237
v 0.247953 1.192005 -0.262131
v -0.246590 1.192005 -0.262131
v 0.247953 1.314934 -0.262131
v -0.246590 1.314934 -0.262131
v 0.247953 1.314934 -0.288237
v -0.246590 1.314934 -0.288237
v -0.246590 1.192005 -0.288237
v -0.308355 1.372178 -0.308355
v -0.308355 1.372178 -0.240445
v -0.240445 1.372178 -0.240445
v -0.240445 1.372178 -0.308355
v -0.240445 -0.000602 -0.308355
v -0.308355 -0.000602 -0.308355
v -0.308355 -0.000602 -0.240445
v -0.240445 -0.000602 -0.240445
v -0.274400 -0.000602 -0.274400
v -0.274400 -0.000602 0.274400
v -0.240445 -0.000602 0.240445
v -0.240445 -0.000602 0.308355
v -0.308355 -0.000602 0.308355
v -0.308355 -0.000602 0.240445
v -0.240445 0.617577 0.240445
v -0.240445 0.617577 0.308355
v -0.308355 0.617577 0.308355
v -0.308355 0.617577 0.240445
v 0.247953 1.124934 -0.288237
v 0.247953 1.002005 -0.288237
v -0.246590 1.002005 -0.288237
v 0.247953 1.124934 -0.262131
v -0.246590 1.124934 -0.288237
v 0.247953 1.002005 -0.262131
v -0.246590 1.124934 -0.262131
v -0.246590 1.002005 -0.262131
vt 0.591634 0.069545
vt 0.591634 0.591537
vt 0.069641 0.591537
vt 0.591600 0.070262
vt 0.591601 0.592255
vt 0.069608 0.592255
vt 0.593733 0.001855
vt 0.069608 0.070263
vt 0.001201 0.068130
vt 0.593485 0.653032
vt 0.653477 0.068378
vt 0.653477 0.590371
vt 0.747670 0.469798
vt 0.666436 0.468876
vt 0.666436 0.123531
vt 0.833104 0.470719
vt 0.747670 0.124452
vt 0.913418 0.471641
vt 0.833104 0.125374
vt 0.993733 0.472562
vt 0.913418 0.126295
vt 0.873722 0.085677
vt 0.834026 0.045060
vt 0.914339 0.045981
vt 0.874143 0.085144
vt 0.915374 0.042543
vt 0.915486 0.125117
vt 0.832911 0.125230
vt 0.832799 0.042655
vt 0.996167 0.757751
vt 0.911934 0.757859
vt 0.829359 0.757935
vt 0.748660 0.757989
vt 0.747408 0.125322
vt 0.666158 0.758201
vt 0.666158 0.125133
vt 0.829436 0.840510
vt 0.589452 0.871832
vt 0.589354 0.935841
vt 0.099589 0.935841
vt 0.589948 0.692641
vt 0.589948 0.871942
vt 0.099909 0.871942
vt 0.591175 0.935608
vt 0.101136 0.935608
vt 0.589452 0.694038
vt 0.099687 0.871832
vt 0.069641 0.069545
vt 0.071741 0.001856
vt 0.001201 0.590122
vt 0.071493 0.653032
vt 0.993733 0.127216
vt 0.996167 0.125291
vt 0.912010 0.840433
vt 0.099909 0.692641
vt 0.099687 0.694038
vn 0.000000 -1.000000 0.000000
vn 0.000000 1.000000 0.000000
vn 1.000000 0.000000 0.000000
vn 0.000000 0.000000 1.000000
vn -1.000000 0.000000 0.000000
vn 0.000000 0.000000 -1.000000
s 1
f 1/1/1 2/2/1 3/3/1
f 4/4/2 5/5/2 6/6/2
f 7/7/3 4/4/3 8/8/3
f 1/9/4 8/8/4 6/6/4
f 6/6/5 5/5/5 3/10/5
f 7/11/6 3/12/6 5/5/6
f 9/13/6 10/14/6 11/15/6
f 12/16/5 9/13/5 13/17/5
f 14/18/4 12/16/4 15/19/4
f 10/20/3 14/18/3 16/21/3
f 17/22/1 13/23/1 11/24/1
f 17/22/1 15/19/1 13/23/1
f 17/22/1 16/21/1 15/19/1
f 17/22/1 11/24/1 16/21/1
f 18/25/1 19/26/1 20/27/1
f 18/25/1 20/27/1 21/28/1
f 18/25/1 21/28/1 22/29/1
f 18/25/1 22/29/1 19/26/1
f 23/30/3 24/31/3 20/27/3
f 24/31/4 25/32/4 21/28/4
f 25/32/5 26/33/5 22/34/5
f 26/33/6 23/35/6 19/36/6
f 26/37/2 25/32/2 24/31/2
f 27/38/1 28/39/1 29/40/1
f 28/41/4 30/42/4 31/43/4
f 30/42/2 32/44/2 33/45/2
f 32/46/6 27/38/6 34/47/6
f 35/37/2 36/32/2 37/31/2
f 35/33/6 38/35/6 39/36/6
f 36/32/5 35/33/5 40/34/5
f 37/31/4 36/32/4 41/28/4
f 38/30/3 37/31/3 42/27/3
f 43/25/1 40/29/1 39/26/1
f 43/25/1 41/28/1 40/29/1
f 43/25/1 42/27/1 41/28/1
f 43/25/1 39/26/1 42/27/1
f 44/22/1 45/24/1 46/21/1
f 44/22/1 46/21/1 47/19/1
f 44/22/1 47/19/1 48/23/1
f 44/22/1 48/23/1 45/24/1
f 49/20/3 50/18/3 46/21/3
f 50/18/4 51/16/4 47/19/4
f 51/16/5 52/13/5 48/17/5
f 52/13/6 49/14/6 45/15/6
f 53/46/6 54/38/6 55/47/6
f 56/42/2 53/44/2 57/45/2
f 58/41/4 56/42/4 59/43/4
f 54/38/1 58/39/1 60/40/1
f 7/48/1 1/1/1 3/3/1
f 8/8/2 4/4/2 6/6/2
f 1/49/3 7/7/3 8/8/3
f 2/50/4 1/9/4 6/6/4
f 2/51/5 6/6/5 3/10/5
f 4/4/6 7/11/6 5/5/6
f 13/17/6 9/13/6 11/15/6
f 15/19/5 12/16/5 13/17/5
f 16/21/4 14/18/4 15/19/4
f 11/52/3 10/20/3 16/21/3
f 19/53/3 23/30/3 20/27/3
f 20/27/4 24/31/4 21/28/4
f 21/28/5 25/32/5 22/34/5
f 22/34/6 26/33/6 19/36/6
f 23/54/2 26/37/2 24/31/2
f 34/47/1 27/38/1 29/40/1
f 29/55/4 28/41/4 31/43/4
f 31/43/2 30/42/2 33/45/2
f 33/56/6 32/46/6 34/47/6
f 38/54/2 35/37/2 37/31/2
f 40/34/6 35/33/6 39/36/6
f 41/28/5 36/32/5 40/34/5
f 42/27/4 37/31/4 41/28/4
f 39/53/3 38/30/3 42/27/3
f 45/52/3 49/20/3 46/21/3
f 46/21/4 50/18/4 47/19/4
f 47/19/5 51/16/5 48/17/5
f 48/17/6 52/13/6 45/15/6
f 57/56/6 53/46/6 55/47/6
f 59/43/2 56/42/2 57/45/2
f 60/55/4 58/41/4 59/43/4
f 55/47/1 54/38/1 60/40/1
