# Blender v2.72 (sub 0) OBJ File: 'Book holder.blend'
# www.blender.org
mtllib model.mtl
o Book_Holder_Book_holder
v 0.034115 1.112584 -0.122040
v 0.034115 1.369530 0.164770
v 0.000000 1.092857 -0.104905
v 0.069960 1.115642 -0.124653
v 0.069960 1.373131 0.161813
v 0.192741 1.347484 0.184510
v 0.192741 1.092857 -0.104904
v -0.192741 1.092857 -0.104905
v 0.214157 1.361630 0.200589
v 0.214157 1.078711 -0.120983
v -0.214157 1.078711 -0.120984
v -0.214157 1.361630 0.200589
v 0.214157 1.352410 0.207515
v 0.214157 1.069491 -0.114057
v -0.214157 1.069491 -0.114058
v -0.214157 1.352410 0.207515
v 0.267696 1.387775 0.247711
v 0.267696 1.034126 -0.154253
v -0.267696 1.034126 -0.154254
v -0.267696 1.387775 0.247711
v 0.267696 1.358925 0.273423
v 0.267696 1.005275 -0.128541
v -0.267696 1.005275 -0.128542
v -0.267696 1.358925 0.273423
v -0.051480 1.216105 0.111091
v 0.051480 1.216105 0.111091
v 0.051480 1.148095 0.033790
v -0.051480 1.148095 0.033790
v -0.192741 1.347484 0.184510
v -0.069960 1.373131 0.161813
v -0.069960 1.115642 -0.124653
v 0.000000 1.347484 0.184510
v -0.034115 1.369530 0.164770
v -0.034115 1.112584 -0.122040
v -0.260000 0.000000 0.260000
v -0.260000 0.000000 -0.260000
v 0.260000 0.000000 -0.260000
v 0.260000 0.000000 0.260000
v -0.260000 0.078000 0.260000
v -0.260000 0.078000 -0.260000
v 0.260000 0.078000 -0.260000
v 0.260000 0.078000 0.260000
v -0.051480 0.130000 0.051480
v -0.051480 0.130000 -0.051480
v 0.051480 0.130000 -0.051480
v 0.051480 0.130000 0.051480
v -0.051480 0.650000 0.051480
v -0.051480 0.650000 -0.051480
v 0.051480 0.650000 -0.051480
v 0.051480 0.650000 0.051480
v 0.051480 0.980012 0.151725
v 0.051480 0.978105 0.048783
v -0.051480 0.978106 0.048783
v -0.051480 0.980012 0.151725
v -0.051480 1.110013 0.151725
v 0.051480 1.110013 0.151725
v 0.051480 1.108105 0.048783
v -0.051480 1.108106 0.048783
vt 0.688338 0.532230
vt 0.649360 0.513148
vt 0.669331 0.515742
vt 0.688338 0.568110
vt 0.669331 0.582669
vt 0.649360 0.584909
vt 0.213212 0.522984
vt 0.214162 0.980799
vt 0.154163 0.983090
vt 0.580952 0.532230
vt 0.580952 0.568110
vt 0.002900 0.524789
vt 0.153212 0.525148
vt 0.618799 0.401027
vt 0.690404 0.399723
vt 0.705308 0.412271
vt 0.547209 0.399873
vt 0.533129 0.412148
vt 0.618209 0.275873
vt 0.546604 0.277177
vt 0.531700 0.264629
vt 0.689799 0.277028
vt 0.703879 0.264753
vt 0.532748 0.434595
vt 0.512559 0.264590
vt 0.531352 0.242180
vt 0.703531 0.242304
vt 0.726119 0.264925
vt 0.725909 0.412442
vt 0.969521 0.602272
vt 0.945763 0.578203
vt 0.948328 0.417926
vt 0.764336 0.599064
vt 0.788056 0.575712
vt 0.764336 0.393853
vt 0.788031 0.417985
vt 0.972901 0.393734
vt 1.000187 0.395014
vt 0.996807 0.603552
vt 0.970091 0.629126
vt 0.764905 0.625918
vt 0.737473 0.394677
vt 0.973890 0.366453
vt 0.868330 0.873265
vt 0.868330 0.814035
vt 0.992714 0.689650
vt 0.809099 0.814035
vt 0.684715 0.689650
vt 0.809099 0.873265
vt 0.684715 0.997650
vt 0.992714 0.997650
vt 0.273375 0.521558
vt 0.334470 0.980594
vt 0.274326 0.979859
vt 0.394367 0.983041
vt 0.393414 0.525126
vt 0.543714 0.524141
vt 0.688338 0.551311
vt 0.619931 0.568110
vt 0.580952 0.551311
vt 0.619931 0.532230
vt 0.333510 0.522856
vt 0.599960 0.565869
vt 0.599959 0.534823
vt 0.066762 0.433634
vt 0.066762 0.066198
vt 0.434198 0.066198
vt 0.490039 0.435148
vt 0.434728 0.435144
vt 0.434755 0.066406
vt 0.434663 0.011181
vt 0.066587 0.067018
vt 0.065991 0.435186
vt 0.010766 0.435097
vt 0.434734 0.490454
vt 0.065997 0.490496
vt 0.285813 0.286234
vt 0.285436 0.214098
vt 0.214191 0.214616
vt 0.213676 0.285861
vt 0.987181 0.022254
vt 0.977739 0.297569
vt 0.925133 0.289609
vt 0.932669 0.020384
vt 0.873293 0.289351
vt 0.875646 0.018979
vt 0.820781 0.297582
vt 0.818330 0.018592
vt 0.763580 0.296588
vt 0.812358 0.527874
vt 0.755773 0.526763
vt 0.867928 0.522615
vt 0.932834 0.521664
vt 0.990263 0.527397
vt 0.808220 0.591811
vt 0.756995 0.597129
vt 0.864599 0.605138
vt 0.932565 0.605365
vt 0.994308 0.595139
vt 0.965424 0.681192
vt 0.925741 0.639037
vt 0.867392 0.636488
vt 0.823615 0.672564
vt 0.002615 0.983090
vt 0.705746 0.434718
vt 0.512348 0.412108
vt 0.737473 0.599888
vt 0.765326 0.366571
vt 0.545905 0.982411
vt 0.434198 0.433634
vt 0.490065 0.066411
vt 0.066495 0.011792
vt 0.011361 0.066928
vt 0.765345 0.018419
vt 0.770704 0.681192
vn -0.006500 0.672600 0.739900
vn 0.001000 -0.656800 -0.754100
vn -0.128800 0.738600 -0.661700
vn -0.000000 0.662700 0.748900
vn 0.000000 -0.655000 -0.755700
vn 0.238500 0.722300 -0.649200
vn -0.000000 0.750800 -0.660500
vn -0.000000 0.600600 0.799500
vn 1.000000 0.000000 0.000000
vn 0.000000 -0.600600 -0.799600
vn -1.000000 0.000000 -0.000000
vn -0.000000 0.665300 0.746500
vn 0.000000 -0.665300 -0.746500
vn -0.000000 -0.750800 0.660500
vn -0.608000 0.591300 -0.529800
vn 0.655200 0.567200 -0.499000
vn -0.238500 0.722300 -0.649200
vn 0.111500 0.739100 -0.664300
vn -0.001000 -0.656800 -0.754100
vn 0.006500 0.672600 0.739900
vn 0.000000 -1.000000 0.000000
vn 0.000000 -0.000000 -1.000000
vn -0.000000 0.000000 1.000000
vn -0.242000 0.970300 -0.000000
vn 0.000000 0.970300 -0.242000
vn 0.242000 0.970300 0.000000
vn -0.000000 0.970300 0.242000
vn -0.000000 -0.290600 0.956800
vn 0.000000 0.292200 -0.956300
vn -0.000000 -0.351100 -0.936400
vn -0.000000 0.357700 0.933800
vn -0.111500 0.739100 -0.664300
vn 0.268700 0.723200 -0.636300
vn -0.000000 0.600600 0.799600
vn 0.000000 -0.600600 -0.799500
vn -0.655200 0.567200 -0.499000
vn 0.608000 0.591300 -0.529800
vn -0.268700 0.723200 -0.636300
vn 0.128800 0.738600 -0.661700
usemtl Texture
s off
f 32/1/1 5/2/1 2/3/1
f 3/4/2 1/5/2 4/6/2
f 1/7/3 2/8/3 5/9/3
f 32/1/4 6/10/4 5/2/4
f 7/11/5 3/4/5 4/6/5
f 7/12/6 4/13/6 5/9/6
f 32/14/7 29/15/7 12/16/7
f 6/17/7 32/14/7 9/18/7
f 32/14/7 12/16/7 9/18/7
f 3/19/7 7/20/7 10/21/7
f 8/22/7 3/19/7 11/23/7
f 3/19/7 10/21/7 11/23/7
f 9/18/7 10/21/7 7/20/7
f 11/23/7 12/16/7 29/15/7
f 13/24/8 9/18/8 12/16/8
f 14/25/9 10/21/9 9/18/9
f 14/26/10 15/27/10 11/23/10
f 15/28/11 16/29/11 12/16/11
f 17/30/7 13/31/7 16/32/7
f 17/30/7 18/33/7 14/34/7
f 19/35/7 15/36/7 14/34/7
f 20/37/7 16/32/7 15/36/7
f 24/38/12 21/39/12 17/30/12
f 21/40/9 22/41/9 18/33/9
f 23/42/13 19/35/13 18/33/13
f 24/43/11 20/37/11 19/35/11
f 25/44/14 26/45/14 21/46/14
f 27/47/14 22/48/14 21/46/14
f 27/47/14 28/49/14 23/50/14
f 25/44/14 24/51/14 23/50/14
f 2/8/15 1/7/15 3/52/15
f 33/53/16 32/54/16 3/52/16
f 30/55/17 31/56/17 8/57/17
f 8/58/5 31/59/5 3/60/5
f 32/60/4 30/61/4 29/58/4
f 34/62/18 31/56/18 30/55/18
f 3/60/19 31/59/19 34/63/19
f 32/60/20 33/64/20 30/61/20
f 36/65/21 37/66/21 38/67/21
f 35/68/11 39/69/11 40/70/11
f 36/71/22 40/70/22 41/72/22
f 41/72/9 42/73/9 38/74/9
f 39/69/23 35/75/23 38/76/23
f 39/69/24 43/77/24 44/78/24
f 40/70/25 44/78/25 45/79/25
f 42/73/26 41/72/26 45/79/26
f 39/69/27 42/73/27 46/80/27
f 43/81/11 47/82/11 48/83/11
f 44/84/22 48/83/22 49/85/22
f 45/86/9 49/85/9 50/87/9
f 46/88/23 50/87/23 47/89/23
f 50/87/28 51/90/28 54/91/28
f 49/85/9 52/92/9 51/90/9
f 49/85/29 48/83/29 53/93/29
f 48/83/11 47/82/11 54/94/11
f 51/90/23 56/95/23 55/96/23
f 52/92/9 57/97/9 56/95/9
f 52/92/22 53/93/22 58/98/22
f 53/93/11 54/94/11 55/99/11
f 58/98/11 55/99/11 25/100/11
f 57/97/30 58/98/30 28/101/30
f 57/97/9 27/102/9 26/103/9
f 55/96/31 56/95/31 26/103/31
f 4/13/32 1/7/32 5/9/32
f 6/104/33 7/12/33 5/9/33
f 6/17/7 9/18/7 7/20/7
f 8/22/7 11/23/7 29/15/7
f 16/105/34 13/24/34 12/16/34
f 13/106/9 14/25/9 9/18/9
f 10/21/35 14/26/35 11/23/35
f 11/23/11 15/28/11 12/16/11
f 20/37/7 17/30/7 16/32/7
f 13/31/7 17/30/7 14/34/7
f 18/33/7 19/35/7 14/34/7
f 19/35/7 20/37/7 15/36/7
f 20/37/12 24/38/12 17/30/12
f 17/30/9 21/40/9 18/33/9
f 22/107/13 23/42/13 18/33/13
f 23/108/11 24/43/11 19/35/11
f 24/51/14 25/44/14 21/46/14
f 26/45/14 27/47/14 21/46/14
f 22/48/14 27/47/14 23/50/14
f 28/49/14 25/44/14 23/50/14
f 32/54/36 2/8/36 3/52/36
f 34/62/37 33/53/37 3/52/37
f 29/109/38 30/55/38 8/57/38
f 33/53/39 34/62/39 30/55/39
f 35/110/21 36/65/21 38/67/21
f 36/111/11 35/68/11 40/70/11
f 37/112/22 36/71/22 41/72/22
f 37/113/9 41/72/9 38/74/9
f 42/73/23 39/69/23 38/76/23
f 40/70/24 39/69/24 44/78/24
f 41/72/25 40/70/25 45/79/25
f 46/80/26 42/73/26 45/79/26
f 43/77/27 39/69/27 46/80/27
f 44/84/11 43/81/11 48/83/11
f 45/86/22 44/84/22 49/85/22
f 46/88/9 45/86/9 50/87/9
f 43/114/23 46/88/23 47/89/23
f 47/89/28 50/87/28 54/91/28
f 50/87/9 49/85/9 51/90/9
f 52/92/29 49/85/29 53/93/29
f 53/93/11 48/83/11 54/94/11
f 54/91/23 51/90/23 55/96/23
f 51/90/9 52/92/9 56/95/9
f 57/97/22 52/92/22 58/98/22
f 58/98/11 53/93/11 55/99/11
f 28/101/11 58/98/11 25/100/11
f 27/102/30 57/97/30 28/101/30
f 56/95/9 57/97/9 26/103/9
f 25/115/31 55/96/31 26/103/31
